<?xml version="1.0" encoding="UTF-8"?>
<svg id="Layer_1" xmlns="http://www.w3.org/2000/svg" viewBox="0 0 225.93 225.93">
  <path d="M112.34,1.33c61.35,0,111.84,49.39,111.64,111.9-.2,62.06-50.14,111.47-112.1,111.19C49.48,224.15.66,173.39.86,112.1,1.05,51.28,51.18,1.33,112.34,1.33ZM2.85,112.86c-.05,59.84,48,109.59,109.52,109.62,61.27.03,109.59-48.97,109.68-109.47.09-61.88-50.03-109.74-109.63-109.73C51.94,3.29,2.88,52.31,2.85,112.86Z"/>
  <path d="M83.56,111.72c0,10.38,0,20.76,0,31.13,0,.96,0,1.92.09,2.87.28,3.02,1.96,4.77,4.94,4.9,2.94.13,5.89.14,8.83.02,3.06-.12,4.84-1.96,5.11-5.01.07-.8.07-1.62.07-2.43-.02-3.18-.02-3.24-3.09-3.61-1.64-.2-2.42-1.12-2.95-2.55-2.82-7.55-4.62-15.36-5.52-23.35-1.69-14.95.25-29.49,5.29-43.64,1.06-2.99,1.47-3.31,4.62-3.31,11.85,0,23.7,0,35.55,0,3.3,0,3.63.24,4.8,3.39,4.04,10.88,5.97,22.18,5.85,33.73-.12,11.23-1.96,22.24-5.97,32.83-.8,2.12-2.07,3.04-4.27,2.97-2.21-.07-4.42.03-6.62-.02-1.65-.04-2.39.55-2.38,2.31.06,7.57.06,15.15,0,22.72-.01,1.72.6,2.38,2.32,2.32,2.65-.09,5.3-.02,7.95,0,1.1.01,2.22.28,2.26,1.58.04,1.45-1.13,1.73-2.33,1.73-12.88,0-25.76,0-38.64,0-1.09,0-2.2-.19-2.22-1.57-.02-1.49,1.17-1.71,2.33-1.73,2.58-.04,5.15-.07,7.73-.01,1.57.03,2.26-.55,2.26-2.19-.04-7.73-.03-15.46-.01-23.18,0-1.23-.35-1.97-1.75-1.94-1.3.03-1.56.79-1.59,1.88-.04,1.76.12,3.52-.26,5.28-.87,3.95-3.57,6.79-7.56,7.33-3.5.47-7.07.53-10.56-.03-5.07-.82-7.83-4.17-7.85-9.36-.04-14.94-.07-29.88.03-44.82.02-2.63-.49-4.81-2.67-6.36-5.24-3.72-7.19-8.68-6.3-15.05.4-2.89.04-5.88.08-8.82.04-2.44.92-3.11,3.35-2.69,4.87.84,8.18,4.25,8.81,9.15.18,1.38.26,2.78.26,4.18.02,10.45.01,20.9.01,31.35ZM118.66,136.07c5.59,0,11.18-.04,16.77.03,1.64.02,2.54-.52,3.07-2.14,6.78-20.51,6.81-41,0-61.51-.53-1.61-1.43-2.14-3.07-2.13-10.96.06-21.92.08-32.88,0-1.91-.01-2.87.58-3.49,2.47-2.2,6.66-3.8,13.42-4.44,20.42-1.28,13.94-.08,27.59,4.57,40.88.53,1.51,1.36,2.03,2.91,2.01,5.52-.07,11.03-.03,16.55-.03ZM113.01,153.24s.1,0,.15,0c0,3.89.03,7.78-.02,11.67-.02,1.5.57,2.12,2.09,2.07,2.42-.08,4.85-.08,7.27-.04,1.34.02,2.06-.41,2.06-1.88-.03-7.86-.02-15.71,0-23.57,0-1.16-.43-1.82-1.66-1.81-2.79,0-5.58-.01-8.37.02-1.2.01-1.58.67-1.55,1.87.08,3.89.03,7.78.03,11.67ZM79.93,90.88c-.02-5.34.29-10.22-.19-15.09-.19-1.94-1.49-3.3-3.15-4.28-1.38-.81-2.17-.69-2.14,1.19.06,2.93.36,5.92-.07,8.79-.67,4.59,2.38,6.64,5.54,9.39Z"/>
  <path d="M115.11,119.61c-1.38-.05-1.93-1.55-.94-3.03,1.84-2.75,3.84-5.4,5.7-8.13.67-.99,2.2-1.96,1.57-3.11-.52-.96-2.17-.32-3.32-.36-1.84-.07-3.68.03-5.52-.05-2.25-.09-3.04-1.36-1.8-3.17,3.2-4.68,6.52-9.26,9.83-13.86.66-.91,1.61-1.46,2.66-.68,1.07.8.69,1.87.08,2.76-1.97,2.84-4.05,5.61-5.99,8.47-.59.86-1.99,1.66-1.42,2.73.47.9,1.9.33,2.89.36,1.99.07,3.97-.01,5.96.03,2.56.06,3.3,1.28,1.89,3.33-3.14,4.54-6.38,9.01-9.6,13.49-.48.67-1.09,1.21-1.99,1.23Z"/>
</svg>