<svg width="20" height="20" viewBox="0 0 20 20" fill="none" xmlns="http://www.w3.org/2000/svg">
<g id="arrow-right (1) 5">
<path id="Union" fill-rule="evenodd" clip-rule="evenodd" d="M10.5893 3.57745C10.2639 3.25201 9.73622 3.25201 9.41078 3.57745C9.08535 3.90289 9.08535 4.43053 9.41078 4.75596L13.8215 9.16671H4.16671C3.70647 9.16671 3.33337 9.5398 3.33337 10C3.33337 10.4603 3.70647 10.8334 4.16671 10.8334H13.8215L9.41078 15.2441C9.08535 15.5696 9.08535 16.0972 9.41078 16.4226C9.73622 16.7481 10.2639 16.7481 10.5893 16.4226L16.422 10.59L16.4226 10.5893C16.4244 10.5875 16.4262 10.5857 16.428 10.5838C16.6691 10.3384 16.7275 9.98088 16.6035 9.68105C16.5631 9.58349 16.5034 9.49204 16.4244 9.41256C16.5003 9.48895 16.5616 9.57998 16.6035 9.68105M10.5893 3.57745L16.4222 9.4104L10.5893 3.57745Z" fill="#1E1E1E"/>
</g>
</svg>
