<?xml version="1.0" encoding="UTF-8"?>
<svg id="Layer_1" xmlns="http://www.w3.org/2000/svg" viewBox="0 0 224.37 224.37">
  <path d="M224.37,111.99c-.02,62.22-50.2,112.29-112.85,111.9C49.35,223.51-.15,172.67.5,110.7,1.13,50.31,49.82-.03,112.53,0c63.21.03,111.98,51.32,111.83,111.99ZM222.42,112.05c.49-59.65-47.98-109.51-108.67-110.18C51.24,1.18,2.49,52.01,2.36,111.67c-.13,60.44,48.95,110.27,109.89,110.37,61.88.1,110.62-50.62,110.17-109.99Z"/>
  <path d="M82.39,73.3c10.5,0,21,0,31.5,0,2.97,0,3.11.11,4.12,2.96,4.3,12.19,5.83,24.72,4.59,37.6-.12,1.22-.54,1.82-1.84,1.73-1.46-.1-1.03-1.15-1-1.93.07-1.8.24-3.59.35-5.39.08-1.33-.61-1.95-1.89-1.98-.5-.01-.99-.01-1.49-.01-21.06,0-42.12,0-63.19,0-3.29,0-3.64.35-3.65,3.61,0,6.96,0,13.92,0,20.88,0,2.48.45,2.94,2.94,2.95,3.73.02,7.46-.01,11.18,0,1.36,0,2.14-.47,2.46-1.94,1.5-6.87,7.71-12.32,14.33-12.68,7.86-.42,14.26,3.8,16.73,11.03,1.15,3.36,1.44,3.58,4.9,3.58,3.23,0,6.46,0,9.69,0,2.84,0,3.02-.16,3.9-2.94.45-1.42.93-2.83,1.37-4.26.23-.76.62-1.36,1.4-1.62,1-.33,1.7-.05,1.48,1.1-.63,3.3-1.68,6.49-3.04,9.56-.54,1.21-1.77,1.22-2.91,1.22-4.1,0-8.2,0-12.3-.02-3.31,0-3.41.05-4.4,3.27-1.93,6.33-6.23,10.08-12.67,11.19-6.27,1.08-11.52-.92-15.48-5.98-1.43-1.83-2.37-3.95-2.87-6.21-.38-1.73-1.35-2.3-3.04-2.27-4.41.07-8.82.04-13.23.02-2.75-.01-3.25-.53-3.25-3.29,0-19.07,0-38.15,0-57.22,0-2.6.38-2.97,3.06-2.97,10.75,0,21.5,0,32.25,0ZM101.98,103.53c5.15,0,10.31.01,15.46,0,2.39,0,2.82-.4,2.66-2.68-.53-7.64-1.71-15.16-4.22-22.43-.58-1.67-1.49-2.36-3.26-2.35-8.69.05-17.39,0-26.08.02-2.41,0-2.83.42-2.84,2.83-.02,7.27-.02,14.53,0,21.8,0,2.44.39,2.81,2.82,2.82,5.15.02,10.31,0,15.46,0ZM65.28,103.53c4.23,0,8.45.01,12.68,0,2.58,0,3.01-.43,2.99-3.07-.01-1.99-.19-3.97-.19-5.95-.02-5.15-.04-10.31.18-15.46.1-2.34-.65-2.96-3.01-2.96-8.39,0-16.78,0-25.16,0-2.27,0-2.86.58-2.87,2.88-.02,7.27-.01,14.54,0,21.81,0,2.3.43,2.75,2.71,2.76,4.22.02,8.45,0,12.68,0ZM82.04,148.62c7.49.07,13.23-5.54,13.58-12.7.41-8.37-7.07-14.16-13.08-14.1-7.47.07-13.59,5.81-13.66,13.11-.07,7.75,5.57,13.61,13.16,13.69Z"/>
  <path d="M156.71,151.39c-4.72,0-9.44,0-14.16,0-.92,0-2.09.11-2.17-1.17-.09-1.37,1.14-1.47,2.12-1.53,1.49-.09,2.98-.01,4.47-.07,2.03-.07,2.6-.68,2.65-2.75.02-.93.02-1.86,0-2.79-.02-2.21-.4-2.62-2.61-2.63-4.78-.01-9.56.02-14.35.02-4.57,0-4.69-.13-4.69-4.7,0-3.73,0-7.45,0-11.18,0-2.37-.34-2.71-2.69-2.75-6.52-.11-13.04-.2-19.55-.31-.62-.01-1.24-.04-1.84-.17-.6-.13-.95-.58-.98-1.21-.03-.67.41-1.05.99-1.18.6-.14,1.22-.19,1.84-.21,7.51-.18,15.02.21,22.53.33,1.98.03,2.46.54,2.47,2.63.03,4.35,0,8.7.02,13.04,0,2.26.36,2.61,2.6,2.61,4.6.02,9.19.02,13.79,0,2.12-.01,2.46-.38,2.47-2.54,0-.56-.02-1.12-.02-1.68,0-4.21,0-4.19-4.3-4.21-5.36-.03-4.76.65-6.48-4.79-2.6-8.22-4.03-16.66-3.71-25.3.3-8.05,1.89-15.88,4.6-23.48.55-1.53,1.52-2.11,3.08-2.11,9.25.03,18.51.03,27.76,0,1.67,0,2.64.63,3.2,2.21,2.25,6.35,3.72,12.88,4.33,19.58.97,10.62-.66,20.91-4.07,30.96-.92,2.73-1.21,2.93-4.15,2.92-1.37,0-2.73.04-4.1,0-1.55-.04-2.17.84-2.09,2.21.32,5.03.1,10.06.12,15.09,0,1.75.65,2.47,2.43,2.41,1.79-.07,3.6.04,5.39.15.76.05,1.54.36,1.52,1.31-.02,1.08-.87,1.25-1.72,1.25-4.91.01-9.81,0-14.72,0v.02ZM156.86,76.07c-3.91,0-7.83.05-11.74-.02-1.9-.04-2.97.68-3.56,2.52-4.77,15.02-4.8,30.01-.06,45.05.63,1.99,1.75,2.75,3.81,2.72,7.33-.09,14.66-.04,21.99-.08,3.32-.01,4.06-.57,5.03-3.79,2.26-7.55,3.29-15.26,3.07-23.16-.19-6.93-1.2-13.71-3.37-20.31-.88-2.7-1.29-2.94-4.18-2.93-3.67,0-7.33,0-11,0ZM152.4,138.8c0,2.54.02,5.09,0,7.63-.02,1.46.62,2.21,2.1,2.2,1.49,0,2.98-.03,4.46,0,1.54.03,2.16-.83,2.09-2.21-.23-5.08-.25-10.16,0-15.24.07-1.4-.59-2.23-2.11-2.22-1.43.02-2.85.04-4.28-.02-1.59-.06-2.28.68-2.27,2.22.01,2.54,0,5.09,0,7.63Z"/>
  <path d="M154.15,102.55c-1.16-.24-2.97.67-3.73-.93-.67-1.43.83-2.47,1.55-3.56,1.78-2.69,3.68-5.31,5.54-7.94.39-.56.77-1.15,1.44-1.41.52-.2,1-.08,1.35.33.6.69.38,1.41-.07,2.05-1.44,2.1-2.93,4.16-4.37,6.26-.37.54-1.03,1.06-.69,1.81.39.86,1.28.61,1.99.63,1.36.05,2.74-.03,4.1.05,1.94.12,2.48,1.11,1.4,2.69-2.3,3.39-4.68,6.72-7.05,10.07-.56.79-1.25,1.56-2.3.82-.97-.69-.46-1.57.03-2.3,1.25-1.85,2.57-3.65,3.83-5.5.51-.74,1.38-1.48.84-2.49-.51-.95-1.56-.49-2.39-.57-.43-.04-.87,0-1.48,0Z"/>
</svg>