<svg width="24" height="24" viewBox="0 0 24 24" fill="none" xmlns="http://www.w3.org/2000/svg">
<path fill-rule="evenodd" clip-rule="evenodd" d="M7.21343 5.21343C8.48291 3.94395 10.2047 3.23077 12 3.23077C13.7953 3.23077 15.5171 3.94395 16.7866 5.21343C18.056 6.48291 18.7692 8.20469 18.7692 10C18.7692 12.6244 17.0672 15.1411 15.2456 17.064C14.3473 18.0121 13.447 18.7876 12.7705 19.3263C12.4568 19.5761 12.1924 19.7741 12 19.9139C11.8076 19.7741 11.5432 19.5761 11.2295 19.3263C10.553 18.7876 9.65268 18.0121 8.75443 17.064C6.93276 15.1411 5.23077 12.6244 5.23077 10C5.23077 8.20469 5.94395 6.48291 7.21343 5.21343ZM11.6583 21.1785C11.6585 21.1786 11.6586 21.1787 12 20.6667L12.3414 21.1787C12.1346 21.3165 11.865 21.3163 11.6583 21.1785ZM11.6583 21.1785L12 20.6667C12.3414 21.1787 12.342 21.1782 12.3422 21.1781L12.3438 21.1771L12.3489 21.1736L12.3669 21.1614C12.3824 21.1509 12.4047 21.1357 12.4333 21.1159C12.4905 21.0762 12.5732 21.0182 12.6776 20.9428C12.8864 20.792 13.1826 20.5714 13.5372 20.2891C14.2453 19.7252 15.1911 18.911 16.139 17.9104C18.0097 15.9358 20 13.1191 20 10C20 7.87827 19.1571 5.84344 17.6569 4.34315C16.1566 2.84285 14.1217 2 12 2C9.87827 2 7.84344 2.84285 6.34315 4.34315C4.84285 5.84344 4 7.87827 4 10C4 13.1191 5.99032 15.9358 7.86095 17.9104C8.80885 18.911 9.75467 19.7252 10.4628 20.2891C10.8174 20.5714 11.1136 20.792 11.3224 20.9428C11.4268 21.0182 11.5095 21.0762 11.5667 21.1159C11.5953 21.1357 11.6176 21.1509 11.6331 21.1614L11.6511 21.1736L11.6562 21.1771L11.6583 21.1785ZM10.1538 10C10.1538 8.9804 10.9804 8.15385 12 8.15385C13.0196 8.15385 13.8462 8.9804 13.8462 10C13.8462 11.0196 13.0196 11.8462 12 11.8462C10.9804 11.8462 10.1538 11.0196 10.1538 10ZM12 6.92308C10.3007 6.92308 8.92308 8.30066 8.92308 10C8.92308 11.6993 10.3007 13.0769 12 13.0769C13.6993 13.0769 15.0769 11.6993 15.0769 10C15.0769 8.30066 13.6993 6.92308 12 6.92308Z" fill="#1E1E1E"/>
</svg>
