<svg width="13" height="12" viewBox="0 0 13 12" fill="none" xmlns="http://www.w3.org/2000/svg">
<path fill-rule="evenodd" clip-rule="evenodd" d="M6.10224 11.8299C6.32939 12.0562 6.69698 12.0556 6.9233 11.8284C7.14961 11.6013 7.14894 11.2337 6.9218 11.0074L2.48616 6.58792L11.9197 6.57069C12.2404 6.57011 12.4998 6.3097 12.4992 5.98906C12.4986 5.66842 12.2382 5.40897 11.9176 5.40955L2.48401 5.42678L6.90351 0.991113C7.12982 0.763972 7.12915 0.396375 6.90201 0.170062C6.67487 -0.0562511 6.30727 -0.0555798 6.08095 0.171561L0.78345 5.51149C0.613799 5.6131 0.50038 5.79885 0.500767 6.01097C0.501088 6.18641 0.579194 6.34354 0.70239 6.44977L6.10224 11.8299Z" fill="#1E1E1E"/>
</svg>
