<svg width="20" height="20" viewBox="0 0 20 20" fill="none" xmlns="http://www.w3.org/2000/svg">
<path fill-rule="evenodd" clip-rule="evenodd" d="M9.319 19.7166C9.69693 20.0945 10.3097 20.0945 10.6876 19.7166C11.0655 19.3386 11.0655 18.7259 10.6876 18.348L3.30738 10.9677L19.0323 10.9677C19.5667 10.9677 20 10.5345 20 10C20 9.46553 19.5667 9.03226 19.0323 9.03226L3.30737 9.03226L10.6876 1.65204C11.0655 1.27411 11.0655 0.66137 10.6876 0.283445C10.3097 -0.0944814 9.69693 -0.0944814 9.319 0.283444L0.472173 9.1686C0.189378 9.33753 9.05118e-07 9.64665 8.74228e-07 10C8.48746e-07 10.2915 0.128859 10.5528 0.332715 10.7303L9.319 19.7166Z" fill="#1E1E1E"/>
</svg>
