<?xml version="1.0" encoding="UTF-8"?>
<svg id="Layer_1" xmlns="http://www.w3.org/2000/svg" viewBox="0 0 224.95 224.95">
  <path d="M117.34,113.77c-.93-.03-1.3-1.04-.64-2.04,1.24-1.85,2.59-3.64,3.84-5.48.45-.66,1.48-1.32,1.06-2.1-.35-.65-1.46-.21-2.24-.25-1.24-.05-2.48.02-3.72-.03-1.52-.06-2.05-.92-1.21-2.14,2.15-3.15,4.4-6.24,6.63-9.34.44-.62,1.09-.98,1.79-.46.72.54.47,1.26.05,1.86-1.33,1.91-2.73,3.78-4.04,5.71-.4.58-1.34,1.12-.96,1.84.32.6,1.28.22,1.95.24,1.34.05,2.68,0,4.02.02,1.72.04,2.22.87,1.27,2.24-2.11,3.06-4.3,6.07-6.47,9.09-.32.45-.73.82-1.34.83Z"/>
  <g>
    <path d="M224.87,112.31c-.03,62.24-50.26,112.32-112.96,111.92C49.73,223.83.2,172.96.87,110.93,1.53,50.49,50.28.15,113.02.21c63.26.06,112.03,51.41,111.85,112.1ZM222.92,112.21c.43-59.59-47.99-109.42-108.66-110.13C51.67,1.35,2.89,52.22,2.73,111.87c-.16,60.52,48.95,110.37,109.89,110.51,61.98.14,110.82-50.68,110.31-110.17Z"/>
    <path d="M111.03,85.14c-6.15,0-12.31.04-18.46-.02-1.97-.02-3.41.66-4.67,2.17-2.31,2.76-4.78,5.39-7.16,8.1-.38.44-1.08.87-.71,1.57.34.65,1.1.43,1.7.46.81.05,1.62-.01,2.42.09.78.1,1.49.47,1.45,1.4-.04.93-.75,1.24-1.56,1.26-2.05.04-4.1.03-6.15.03-3.92,0-7.83,0-11.75,0-1.02,0-2.2-.03-2.14-1.43.05-1.23,1.17-1.3,2.11-1.31,2.42-.03,4.85-.04,7.27,0,1.19.02,2.14-.31,2.96-1.24,3.21-3.63,6.52-7.17,9.7-10.83,1.7-1.96,3.67-2.98,6.31-2.97,12.68.05,25.36.04,38.04,0,3.34,0,6.19,1.12,8.67,3.3,4.67,4.1,9.36,8.17,14,12.31,1.24,1.1,2.6,1.87,4.18,2.34,3.63,1.08,7.22,2.3,10.87,3.32,7.15,2,11.05,6.53,11.38,14.03.14,3.11.27,6.21-.06,9.31-.32,2.97-1.74,4.29-4.73,4.43-1.86.09-3.73.11-5.59,0-1.63-.09-2.59.51-3.4,1.97-3.29,5.92-8.72,8.26-15.07,6.67-3.6-.91-6.24-3.09-7.8-6.4-.82-1.74-1.92-2.27-3.77-2.25-8.51.09-17.03.07-25.55.01-1.55,0-2.44.47-3.21,1.9-2.37,4.42-6.04,7.05-11.19,7.13-5.32.08-9.38-2.18-11.83-6.95-.79-1.55-1.81-2.22-3.53-2.08-1.3.11-2.61.04-3.91.01-3.69-.08-5.34-1.68-5.4-5.4-.06-3.42,0-6.84-.02-10.26-.01-2.36-.21-2.56-2.56-2.57-3.73-.01-7.46.01-11.19-.01-1.09,0-1.99.23-2.37,1.37-2.04,6.28-6.97,7.11-12.7,7.07-.68,0-1.36-.15-2.04-.18-2.77-.13-2.8-.12-3.2-2.92-.2-1.43-1.17-1.69-2.3-1.5-1.63.28-3.22-.01-4.83-.08-.83-.03-1.53-.32-1.58-1.23-.05-.95.69-1.23,1.48-1.34,1.67-.23,3.35-.21,5.02-.05,1.49.15,2.2-.36,2.24-1.92.05-2.61-.12-2.96-2.08-3.01-1.43-.04-2.86.03-4.29-.03-1.03-.05-2.4,0-2.37-1.45.03-1.35,1.32-1.24,2.3-1.26,1.43-.03,2.86-.05,4.29,0,1.49.06,2.25-.57,2.12-2.09-.15-1.78.68-2.47,2.42-2.4,2.05.08,4.1,0,6.15.02,4.13.04,7.64,2.36,9.09,6.23.58,1.56,1.47,2.06,3.06,2.03,4.41-.08,8.83-.04,13.24-.02,2.42.01,2.79.39,2.8,2.84.01,4.16,0,8.33.01,12.49.01,2.37.53,2.89,2.82,2.9,1.61,0,3.39.35,4.8-.2,1.76-.69.96-2.87,1.4-4.35,1.75-5.89,7.26-9.94,13.31-9.6,6.35.36,11.39,5.08,12.21,11.77.24,1.99,1.01,2.44,2.82,2.42,7.96-.07,15.91-.07,23.87,0,1.79.01,2.63-.39,2.87-2.4.77-6.42,5.22-10.84,11.44-11.71,5.54-.78,11.12,2.51,13.47,7.95.57,1.32.91,2.71.92,4.16.01,1.39.69,2.02,2.09,1.99,1.86-.05,3.73-.01,5.59-.02,1.21,0,1.87-.63,1.87-1.83,0-3.79.26-7.61-.15-11.36-.51-4.68-3.61-7.48-7.99-8.87-4.14-1.32-8.3-2.61-12.47-3.83-1.77-.52-3.26-1.4-4.63-2.64-4.38-3.96-8.85-7.81-13.26-11.73-2.74-2.43-5.86-3.45-9.57-3.34-5.84.18-11.68.05-17.53.05v.02ZM98.77,137.76c5.77,0,10.26-4.5,10.25-10.28,0-5.76-4.5-10.16-10.37-10.16-5.67,0-10.31,4.54-10.3,10.08,0,5.84,4.55,10.36,10.42,10.36ZM154.07,137.74c5.92.02,10.53-4.5,10.49-10.27-.04-5.61-4.6-10.14-10.24-10.16-5.85-.02-10.4,4.39-10.42,10.1-.02,5.84,4.38,10.3,10.18,10.32ZM43.08,111.85c0,1.67.01,3.35,0,5.02-.01,1.2.49,1.86,1.76,1.87,1.79.03,3.57.21,5.37-.07,3.45-.53,5.93-3.47,5.83-7.08-.09-3.44-2.94-6.41-6.36-6.58-1.55-.08-3.1.02-4.65-.04-1.48-.06-1.98.67-1.95,2.04.04,1.61,0,3.22.01,4.84Z"/>
    <path d="M82.3,104.07c3.17,0,6.34,0,9.5,0,.88,0,1.91-.02,1.99,1.16.09,1.28-1,1.51-1.93,1.52-6.4.04-12.8.05-19.19,0-.9,0-2.05-.16-1.99-1.45.06-1.31,1.18-1.23,2.11-1.23,3.17-.01,6.34,0,9.5,0Z"/>
  </g>
</svg>