<svg width="226" height="225" viewBox="0 0 226 225" fill="none" xmlns="http://www.w3.org/2000/svg">
<path d="M117.71 113.77C116.78 113.74 116.41 112.73 117.07 111.73C118.31 109.88 119.66 108.09 120.91 106.25C121.36 105.59 122.39 104.93 121.97 104.15C121.62 103.5 120.51 103.94 119.73 103.9C118.49 103.85 117.25 103.92 116.01 103.87C114.49 103.81 113.96 102.95 114.8 101.73C116.95 98.5803 119.2 95.4903 121.43 92.3903C121.87 91.7703 122.52 91.4103 123.22 91.9303C123.94 92.4703 123.69 93.1903 123.27 93.7903C121.94 95.7003 120.54 97.5703 119.23 99.5003C118.83 100.08 117.89 100.62 118.27 101.34C118.59 101.94 119.55 101.56 120.22 101.58C121.56 101.63 122.9 101.58 124.24 101.6C125.96 101.64 126.46 102.47 125.51 103.84C123.4 106.9 121.21 109.91 119.04 112.93C118.72 113.38 118.31 113.75 117.7 113.76L117.71 113.77Z" fill="black"/>
<path d="M111.4 85.14C105.25 85.14 99.0897 85.18 92.9397 85.12C90.9697 85.1 89.5297 85.78 88.2697 87.29C85.9597 90.05 83.4897 92.68 81.1097 95.39C80.7297 95.83 80.0297 96.26 80.3997 96.96C80.7397 97.61 81.4997 97.39 82.0997 97.42C82.9097 97.47 83.7197 97.41 84.5197 97.51C85.2997 97.61 86.0097 97.98 85.9697 98.91C85.9297 99.84 85.2197 100.15 84.4097 100.17C82.3597 100.21 80.3097 100.2 78.2597 100.2C74.3397 100.2 70.4297 100.2 66.5097 100.2C65.4897 100.2 64.3097 100.17 64.3697 98.77C64.4197 97.54 65.5397 97.47 66.4797 97.46C68.8997 97.43 71.3297 97.42 73.7497 97.46C74.9397 97.48 75.8897 97.15 76.7097 96.22C79.9197 92.59 83.2297 89.05 86.4097 85.39C88.1097 83.43 90.0797 82.41 92.7197 82.42C105.4 82.47 118.08 82.46 130.76 82.42C134.1 82.42 136.95 83.54 139.43 85.72C144.1 89.82 148.79 93.89 153.43 98.03C154.67 99.13 156.03 99.9 157.61 100.37C161.24 101.45 164.83 102.67 168.48 103.69C175.63 105.69 179.53 110.22 179.86 117.72C180 120.83 180.13 123.93 179.8 127.03C179.48 130 178.06 131.32 175.07 131.46C173.21 131.55 171.34 131.57 169.48 131.46C167.85 131.37 166.89 131.97 166.08 133.43C162.79 139.35 157.36 141.69 151.01 140.1C147.41 139.19 144.77 137.01 143.21 133.7C142.39 131.96 141.29 131.43 139.44 131.45C130.93 131.54 122.41 131.52 113.89 131.46C112.34 131.46 111.45 131.93 110.68 133.36C108.31 137.78 104.64 140.41 99.4897 140.49C94.1697 140.57 90.1097 138.31 87.6597 133.54C86.8697 131.99 85.8497 131.32 84.1297 131.46C82.8297 131.57 81.5197 131.5 80.2197 131.47C76.5297 131.39 74.8797 129.79 74.8197 126.07C74.7597 122.65 74.8197 119.23 74.7997 115.81C74.7897 113.45 74.5897 113.25 72.2397 113.24C68.5097 113.23 64.7797 113.25 61.0497 113.23C59.9597 113.23 59.0597 113.46 58.6797 114.6C56.6397 120.88 51.7097 121.71 45.9797 121.67C45.2997 121.67 44.6197 121.52 43.9397 121.49C41.1697 121.36 41.1397 121.37 40.7397 118.57C40.5397 117.14 39.5697 116.88 38.4397 117.07C36.8097 117.35 35.2197 117.06 33.6097 116.99C32.7797 116.96 32.0797 116.67 32.0297 115.76C31.9797 114.81 32.7197 114.53 33.5097 114.42C35.1797 114.19 36.8597 114.21 38.5297 114.37C40.0197 114.52 40.7297 114.01 40.7697 112.45C40.8197 109.84 40.6497 109.49 38.6897 109.44C37.2597 109.4 35.8297 109.47 34.3997 109.41C33.3697 109.36 31.9997 109.41 32.0297 107.96C32.0597 106.61 33.3497 106.72 34.3297 106.7C35.7597 106.67 37.1897 106.65 38.6197 106.7C40.1097 106.76 40.8697 106.13 40.7397 104.61C40.5897 102.83 41.4197 102.14 43.1597 102.21C45.2097 102.29 47.2597 102.21 49.3097 102.23C53.4397 102.27 56.9497 104.59 58.3997 108.46C58.9797 110.02 59.8697 110.52 61.4597 110.49C65.8697 110.41 70.2897 110.45 74.6997 110.47C77.1197 110.48 77.4897 110.86 77.4997 113.31C77.5097 117.47 77.4997 121.64 77.5097 125.8C77.5197 128.17 78.0397 128.69 80.3297 128.7C81.9397 128.7 83.7197 129.05 85.1297 128.5C86.8897 127.81 86.0897 125.63 86.5297 124.15C88.2797 118.26 93.7897 114.21 99.8397 114.55C106.19 114.91 111.23 119.63 112.05 126.32C112.29 128.31 113.06 128.76 114.87 128.74C122.83 128.67 130.78 128.67 138.74 128.74C140.53 128.75 141.37 128.35 141.61 126.34C142.38 119.92 146.83 115.5 153.05 114.63C158.59 113.85 164.17 117.14 166.52 122.58C167.09 123.9 167.43 125.29 167.44 126.74C167.45 128.13 168.13 128.76 169.53 128.73C171.39 128.68 173.26 128.72 175.12 128.71C176.33 128.71 176.99 128.08 176.99 126.88C176.99 123.09 177.25 119.27 176.84 115.52C176.33 110.84 173.23 108.04 168.85 106.65C164.71 105.33 160.55 104.04 156.38 102.82C154.61 102.3 153.12 101.42 151.75 100.18C147.37 96.22 142.9 92.37 138.49 88.45C135.75 86.02 132.63 85 128.92 85.11C123.08 85.29 117.24 85.16 111.39 85.16V85.18L111.4 85.14ZM99.1397 137.76C104.91 137.76 109.4 133.26 109.39 127.48C109.39 121.72 104.89 117.32 99.0197 117.32C93.3497 117.32 88.7097 121.86 88.7197 127.4C88.7197 133.24 93.2697 137.76 99.1397 137.76ZM154.44 137.74C160.36 137.76 164.97 133.24 164.93 127.47C164.89 121.86 160.33 117.33 154.69 117.31C148.84 117.29 144.29 121.7 144.27 127.41C144.25 133.25 148.65 137.71 154.45 137.73L154.44 137.74ZM43.4497 111.85C43.4497 113.52 43.4597 115.2 43.4497 116.87C43.4397 118.07 43.9397 118.73 45.2097 118.74C46.9997 118.77 48.7797 118.95 50.5797 118.67C54.0297 118.14 56.5097 115.2 56.4097 111.59C56.3197 108.15 53.4697 105.18 50.0497 105.01C48.4997 104.93 46.9497 105.03 45.3997 104.97C43.9197 104.91 43.4197 105.64 43.4497 107.01C43.4897 108.62 43.4497 110.23 43.4597 111.85H43.4497Z" fill="black"/>
<path d="M82.6701 104.07C85.8401 104.07 89.0101 104.07 92.1701 104.07C93.0501 104.07 94.0801 104.05 94.1601 105.23C94.2501 106.51 93.1601 106.74 92.2301 106.75C85.8301 106.79 79.4301 106.8 73.0401 106.75C72.1401 106.75 70.9901 106.59 71.0501 105.3C71.1101 103.99 72.2301 104.07 73.1601 104.07C76.3301 104.06 79.5001 104.07 82.6601 104.07H82.6701Z" fill="black"/>
</svg>
