<svg width="79" height="80" viewBox="0 0 79 80" fill="none" xmlns="http://www.w3.org/2000/svg">
<rect x="1.33008" y="1.41504" width="77.1699" height="77.1699" rx="38.5849" stroke="black"/>
<path fill-rule="evenodd" clip-rule="evenodd" d="M33.1025 32.1552C32.5324 32.1552 32.0702 32.6173 32.0702 33.1874C32.0702 33.7575 32.5324 34.2197 33.1025 34.2197H44.2355L32.3726 46.0826C31.9694 46.4858 31.9694 47.1394 32.3725 47.5425C32.7757 47.9456 33.4293 47.9456 33.8324 47.5425L45.6953 35.6795L45.6953 46.8126C45.6953 47.3827 46.1575 47.8448 46.7276 47.8448C47.2977 47.8448 47.7598 47.3827 47.7598 46.8126L47.7309 33.4307C47.8125 33.0927 47.7214 32.7214 47.4575 32.4575C47.455 32.455 47.4525 32.4525 47.45 32.4501C47.2701 32.2663 47.0165 32.1552 46.7276 32.1552L33.1025 32.1552Z" fill="#1E1E1E"/>
</svg>
