<svg width="32" height="32" viewBox="0 0 32 32" fill="none" xmlns="http://www.w3.org/2000/svg">
<g id="CaretDoubleUp">
<path id="Vector" d="M26.7075 25.2928C26.8004 25.3857 26.8741 25.496 26.9244 25.6174C26.9747 25.7388 27.0006 25.8689 27.0006 26.0003C27.0006 26.1317 26.9747 26.2618 26.9244 26.3832C26.8741 26.5046 26.8004 26.6149 26.7075 26.7078C26.6146 26.8007 26.5043 26.8744 26.3829 26.9247C26.2615 26.975 26.1314 27.0009 26 27.0009C25.8686 27.0009 25.7385 26.975 25.6171 26.9247C25.4957 26.8744 25.3854 26.8007 25.2925 26.7078L16 17.414L6.70751 26.7078C6.51987 26.8954 6.26537 27.0009 6.00001 27.0009C5.73464 27.0009 5.48015 26.8954 5.29251 26.7078C5.10487 26.5202 4.99945 26.2657 4.99945 26.0003C4.99945 25.7349 5.10487 25.4804 5.29251 25.2928L15.2925 15.2928C15.3854 15.1998 15.4957 15.1261 15.6171 15.0757C15.7385 15.0254 15.8686 14.9995 16 14.9995C16.1314 14.9995 16.2615 15.0254 16.3829 15.0757C16.5043 15.1261 16.6146 15.1998 16.7075 15.2928L26.7075 25.2928ZM6.70751 16.7078L16 7.41405L25.2925 16.7078C25.3854 16.8007 25.4957 16.8744 25.6171 16.9247C25.7385 16.975 25.8686 17.0009 26 17.0009C26.1314 17.0009 26.2615 16.975 26.3829 16.9247C26.5043 16.8744 26.6146 16.8007 26.7075 16.7078C26.8004 16.6149 26.8741 16.5046 26.9244 16.3832C26.9747 16.2618 27.0006 16.1317 27.0006 16.0003C27.0006 15.8689 26.9747 15.7388 26.9244 15.6174C26.8741 15.496 26.8004 15.3857 26.7075 15.2928L16.7075 5.2928C16.6146 5.19982 16.5043 5.12606 16.3829 5.07574C16.2615 5.02541 16.1314 4.99951 16 4.99951C15.8686 4.99951 15.7385 5.02541 15.6171 5.07574C15.4957 5.12606 15.3854 5.19982 15.2925 5.2928L5.29251 15.2928C5.10487 15.4804 4.99945 15.7349 4.99945 16.0003C4.99945 16.2657 5.10487 16.5202 5.29251 16.7078C5.48015 16.8954 5.73464 17.0009 6.00001 17.0009C6.26537 17.0009 6.51987 16.8954 6.70751 16.7078Z" fill="#343330"/>
</g>
</svg>
