<svg width="168" height="100" viewBox="0 0 168 100" fill="none" xmlns="http://www.w3.org/2000/svg">
<path d="M31.0184 25.0884C31.0184 20.5707 31.0164 16.0549 31.0184 11.5371C31.0184 9.42479 31.4541 8.98506 33.5182 8.98506C37.767 8.98506 42.0177 8.95896 46.2664 9.00313C47.2121 9.01317 47.5133 8.70195 47.4431 7.79237C47.3768 6.9611 47.425 6.11978 47.431 5.28449C47.441 3.67817 47.933 3.17017 49.5252 3.17017C56.1172 3.16616 62.7091 3.16616 69.3011 3.16817C72.6462 3.16817 75.9934 3.13203 79.3386 3.18423C86.9204 3.3027 93.9882 5.34674 100.584 9.03726C101.387 9.48703 102.072 9.68381 102.911 9.23404C106.072 7.53134 109.284 7.50724 112.756 8.41682C117.698 9.71192 122.751 10.5773 127.751 11.6596C128.366 11.7921 128.827 11.6977 129.337 11.3544C134.556 7.84256 139.784 4.34881 145.013 0.851051C145.346 0.628174 145.676 0.39325 146.033 0.212539C146.856 -0.203096 147.667 0.00371736 148.153 0.720538C148.639 1.43736 148.519 2.23449 147.804 2.86899C147.581 3.06777 147.324 3.23242 147.075 3.39908C141.539 7.09964 135.994 10.7841 130.476 14.5088C129.594 15.1031 128.751 15.2176 127.733 14.9987C121.525 13.6574 115.306 12.3623 109.092 11.0391C108.455 10.9046 107.851 10.8645 107.222 11.0994C100.767 13.5048 94.2934 15.8641 87.8521 18.3077C84.6173 19.5346 83.9126 23.6146 86.4987 25.8133C87.6714 26.8092 89.0407 27.0883 90.5427 26.7229C95.2211 25.5844 99.9095 24.4881 104.574 23.2954C105.935 22.948 106.881 23.189 107.847 24.2612C112.411 29.3331 117.766 33.3148 124.205 35.7263C124.926 35.9954 125.643 36.3267 126.39 36.4572C128.293 36.7885 129.707 37.8025 131.03 39.1759C134.371 42.6455 137.833 46.0007 141.216 49.4302C141.754 49.9764 142.124 50.0768 142.81 49.635C149.87 45.0911 156.956 40.5834 164.036 36.0656C165.439 35.1701 166.319 35.1761 166.929 36.0937C167.558 37.0375 167.202 37.8928 165.755 38.8165C158.962 43.1575 152.163 47.4946 145.366 51.8297C144.31 52.5023 144.306 52.4943 145.224 53.4119C146.051 54.2412 146.88 55.0684 147.706 55.8997C148.181 56.3796 148.459 56.9317 148.24 57.6204C148.119 57.9999 148.232 58.3473 148.322 58.7007C149.609 63.7205 150.902 68.7402 152.179 73.764C152.336 74.3804 152.691 74.8302 153.125 75.2619C157.414 79.5387 161.695 83.8216 165.973 88.1084C166.303 88.4397 166.646 88.771 166.907 89.1545C167.381 89.8493 167.331 90.5581 166.737 91.1644C166.14 91.7748 165.427 91.809 164.723 91.3833C164.385 91.1805 164.106 90.8713 163.823 90.5902C159.775 86.5463 155.715 82.5144 151.699 78.4384C151.065 77.7938 150.687 77.8079 150.103 78.4564C149.232 79.4242 148.298 80.3439 147.338 81.2253C146.756 81.7574 146.772 82.1108 147.324 82.6771C151.486 86.9358 155.617 91.2267 159.753 95.5095C160.076 95.8449 160.412 96.1862 160.659 96.5778C161.114 97.3026 160.978 98.0114 160.359 98.5696C159.745 99.1238 159.038 99.19 158.341 98.6861C158.101 98.5114 157.888 98.2905 157.679 98.0757C153.267 93.4996 148.852 88.9277 144.459 84.3336C143.858 83.7051 143.204 83.3035 142.355 83.0887C137.363 81.8217 132.397 80.4543 127.39 79.2536C125.94 78.9062 124.964 78.083 124.008 77.0871C123.5 76.557 123.031 75.8381 122.4 75.6193C121.729 75.3884 121.266 76.2738 120.677 76.6192C115.874 79.4483 109.812 76.1393 109.68 70.5814C109.666 69.957 109.61 69.6719 108.825 69.6417C104.712 69.4811 101.851 66.5817 101.668 62.4595C101.642 61.8672 101.504 61.6864 100.873 61.6583C96.8234 61.4756 93.9742 58.7328 93.6629 54.711C93.6047 53.96 93.4059 53.695 92.6168 53.6388C89.6732 53.428 87.4625 52.0044 86.2598 49.2816C85.0751 46.5991 85.4727 44.039 87.3039 41.752C87.7938 41.1396 87.6633 40.8183 87.2136 40.2401C85.9506 38.6237 84.4246 37.9952 82.3544 38.184C80.3305 38.3687 78.2764 38.2462 76.2343 38.2121C75.5898 38.202 75.1842 38.4269 74.8308 38.957C73.2908 41.2681 71.6965 43.543 70.1685 45.8602C69.5561 46.7898 68.777 47.2135 67.6646 47.2095C61.7092 47.1894 55.7517 47.2095 49.7963 47.1934C47.9249 47.1894 47.429 46.6533 47.425 44.79C47.425 44.0531 47.3728 43.3121 47.437 42.5833C47.5194 41.6556 47.1619 41.3605 46.2423 41.3705C42.3269 41.4087 38.4135 41.3866 34.4981 41.3866C31.2272 41.3866 31.0184 41.1858 31.0144 37.929C31.0084 33.6461 31.0144 29.3632 31.0144 25.0804L31.0184 25.0884ZM97.4197 11.252C97.3916 10.9287 97.2029 10.8865 97.0643 10.8183C92.0185 8.35056 86.7035 6.66593 81.0895 6.55349C71.2568 6.35672 61.416 6.46715 51.5793 6.42499C50.9167 6.42298 50.7079 6.62778 50.7079 7.28035C50.722 19.1591 50.722 31.0378 50.7059 42.9146C50.7059 43.7097 50.995 43.9486 51.7681 43.9446C56.7196 43.9185 61.673 43.9225 66.6245 43.9426C67.261 43.9446 67.6707 43.7459 68.0301 43.2077C69.6083 40.8424 71.2507 38.5193 72.8209 36.1479C73.4012 35.2725 74.122 34.901 75.1641 34.9171C77.6057 34.9553 80.0494 34.9071 82.491 34.9352C87.2899 34.9934 85.8522 34.3248 89.3299 37.7884C90.0286 38.4852 90.4583 38.5976 91.1691 37.8165C92.2474 36.6319 93.3838 35.4813 94.6066 34.4473C96.9117 32.4976 99.5521 32.1081 102.297 33.3349C105.042 34.5617 106.503 36.7724 106.574 39.8084C106.59 40.5091 106.829 40.7139 107.513 40.738C111.531 40.8846 114.437 43.7559 114.581 47.7496C114.609 48.5427 114.868 48.7576 115.637 48.7857C119.573 48.9262 122.494 51.8558 122.613 55.7872C122.635 56.498 122.854 56.6486 123.528 56.6928C126.685 56.8996 129.016 58.4116 130.14 61.4073C131.299 64.4915 130.45 67.1821 128.153 69.4671C127.394 70.222 126.639 70.981 125.882 71.738C124.595 73.0251 124.623 73.001 125.858 74.3101C126.378 74.8623 126.683 74.9386 127.265 74.3503C132.731 68.8386 138.222 63.351 143.73 57.8815C144.292 57.3233 144.29 57.0181 143.726 56.4579C138.831 51.6068 133.941 46.7457 129.108 41.8323C127.996 40.7019 126.799 39.9589 125.263 39.4991C117.804 37.2603 111.616 32.9674 106.279 27.3835C105.642 26.7168 105.066 26.5301 104.166 26.757C99.9196 27.8332 95.6528 28.8251 91.402 29.8833C89.6471 30.321 87.9525 30.2447 86.304 29.5118C83.4508 28.2428 81.5432 25.3655 81.6677 22.3557C81.8103 18.9443 83.521 16.5569 86.6754 15.2577C88.2516 14.6072 89.87 14.0651 91.4703 13.4687C93.4642 12.7258 95.456 11.9808 97.4197 11.246V11.252ZM47.431 25.1627C47.431 21.1811 47.4169 17.1994 47.4431 13.2177C47.4491 12.4668 47.2623 12.1395 46.4371 12.1475C42.7225 12.1836 39.0079 12.1756 35.2952 12.1515C34.5744 12.1475 34.2893 12.3563 34.2913 13.1213C34.3134 21.1188 34.3154 29.1163 34.2913 37.1137C34.2893 37.9269 34.5844 38.1378 35.3495 38.1318C38.9637 38.1016 42.5779 38.0916 46.1901 38.1398C47.1358 38.1518 47.4671 37.9008 47.4531 36.9109C47.4009 32.9975 47.431 29.0801 47.431 25.1667V25.1627ZM129.811 76.4827C134.453 77.6854 138.945 78.848 143.435 80.0186C143.919 80.1451 144.184 79.8479 144.467 79.5648C145.814 78.2175 147.151 76.8581 148.517 75.5289C148.946 75.1093 149.075 74.7017 148.912 74.1013C148.28 71.7802 147.702 69.445 147.101 67.1158C146.571 65.0577 146.037 62.9996 145.501 60.9335C140.262 66.1259 135.1 71.2421 129.811 76.4847V76.4827ZM104.931 61.9756C104.951 64.0779 105.736 65.3248 107.277 66.0215C108.901 66.7544 110.465 66.4713 111.728 65.2565C113.919 63.1522 116.063 60.9957 118.147 58.787C119.812 57.0221 119.728 54.6367 118.087 53.0545C116.451 51.4783 114.105 51.5265 112.34 53.2452C110.258 55.2712 108.22 57.3413 106.174 59.4035C105.365 60.2187 104.895 61.1885 104.933 61.9756H104.931ZM99.257 35.9873C98.2771 35.9371 97.3434 36.2785 96.5965 37.0154C94.3597 39.2261 92.1108 41.4267 89.9343 43.6957C88.4565 45.2337 88.583 47.7295 90.0969 49.2415C91.5607 50.7012 94.0545 50.8217 95.5604 49.376C97.8534 47.1774 100.1 44.9245 102.303 42.6335C103.52 41.3665 103.646 39.7742 102.943 38.2382C102.271 36.7664 101.032 35.9472 99.257 35.9873ZM117.141 74.3141C118.017 74.3663 118.965 74.0069 119.74 73.2359C121.922 71.0674 124.121 68.9149 126.259 66.7042C127.779 65.132 127.717 62.7245 126.215 61.1785C124.669 59.5882 122.241 59.4617 120.621 61.0158C118.352 63.1904 116.125 65.4131 113.959 67.6861C112.758 68.945 112.636 70.5272 113.31 72.0854C113.975 73.6174 115.256 74.3161 117.141 74.3141ZM111.318 47.9885C111.304 46.2879 110.539 44.9847 108.995 44.3301C107.455 43.6776 105.883 43.786 104.612 45.0249C102.411 47.1713 100.235 49.3439 98.0884 51.5445C96.5041 53.1709 96.5382 55.6848 98.0944 57.2289C99.6083 58.7308 102.207 58.7368 103.807 57.1787C105.937 55.1025 108.025 52.9842 110.122 50.8739C110.907 50.0828 111.355 49.1351 111.32 47.9906L111.318 47.9885Z" fill="black"/>
<path d="M5.43827 30.0078C4.23353 30.0078 3.03079 30.0078 1.82605 30.0078C1.1012 30.0078 0.518908 29.7568 0.177564 29.0801C-0.167795 28.3934 0.0249631 27.783 0.460678 27.2128C5.7013 20.3578 10.9339 13.4968 16.1906 6.65388C17.1423 5.41501 18.4475 5.158 19.6522 5.84068C20.8469 6.51935 21.3047 7.75822 20.7967 9.22399C19.6462 12.541 18.4555 15.844 17.2789 19.1511C16.8913 20.2393 16.8954 20.2534 18.074 20.2554C20.3489 20.2614 22.6239 20.2654 24.8968 20.2554C25.7141 20.2514 26.451 20.394 26.8465 21.1991C27.2441 22.0123 26.8586 22.6669 26.3666 23.3094C21.2866 29.9516 16.2167 36.5977 11.1427 43.2459C10.4279 44.1836 9.62273 44.9847 8.30756 44.7739C6.49241 44.4827 5.58484 42.8323 6.23741 40.9689C7.34377 37.8125 8.48626 34.6701 9.6147 31.5238C9.97612 30.5171 9.62006 30.0138 8.5465 30.0138C7.51042 30.0138 6.47234 30.0138 5.43626 30.0138V30.0098L5.43827 30.0078ZM4.94031 26.7188C5.53465 26.7188 5.86193 26.7188 6.18922 26.7188C8.19712 26.7229 10.205 26.6907 12.2109 26.7409C13.6646 26.7791 14.3513 27.765 13.9237 29.1042C13.6084 30.0921 13.243 31.0619 12.8956 32.0398C12.1848 34.0437 11.47 36.0455 10.7552 38.0494C10.8154 38.0836 10.8777 38.1177 10.9379 38.1498C14.6043 33.3489 18.2708 28.548 22.0878 23.5504C19.612 23.5504 17.4415 23.5564 15.271 23.5504C13.245 23.5423 12.5723 22.6328 13.2309 20.7554C13.9939 18.5788 14.7891 16.4123 15.5661 14.2397C15.8031 13.5791 16.0299 12.9145 16.2609 12.2519L16.0601 12.1656C12.4117 16.9424 8.76134 21.7172 4.9383 26.7208L4.94031 26.7188Z" fill="black"/>
</svg>
