<svg width="180" height="180" viewBox="0 0 180 180" fill="none" xmlns="http://www.w3.org/2000/svg">
<path d="M97.9181 143.666C97.9181 150.81 97.9232 157.954 97.9129 165.103C97.9129 166.358 98.2125 168.016 96.2599 167.944C94.452 167.877 94.5811 166.27 94.5811 164.994C94.5656 151.047 94.5914 137.1 94.5346 123.158C94.5294 121.712 95.325 119.708 92.6595 119.413C88.8628 118.995 87.9743 119.398 87.029 122.203C82.1579 136.635 77.2816 151.063 72.3949 165.49C72.1211 166.296 71.961 167.184 71.1862 167.717C70.6386 168.094 70.0394 168.099 69.497 167.706C68.5569 167.024 68.6447 166.074 68.9495 165.139C70.1324 161.544 71.336 157.954 72.5447 154.363C76.4551 142.787 80.3654 131.211 84.2809 119.635C85.5413 115.906 85.717 115.782 89.5705 115.777C95.0357 115.761 94.421 116.2 94.6069 110.74C94.6844 108.457 94.0594 107.202 91.8123 106.287C88.2843 104.851 86.5176 101.721 86.5589 98.0689C86.6003 94.5098 87.4629 90.8164 91.3681 89.4011C94.8497 88.1407 94.7102 85.5837 94.6276 82.753C94.4778 77.6855 94.5191 77.6648 89.7306 79.3901C81.9616 82.1899 74.2184 85.0671 66.4286 87.8101C62.9212 89.0446 62.7198 88.9155 61.1959 85.6818C60.4262 84.0495 59.2485 84.5196 58.1534 84.9018C53.2099 86.6375 48.2871 88.4351 43.3695 90.2327C36.9796 92.5624 30.6156 94.9437 24.2051 97.2166C22.6813 97.759 21.7153 98.2704 22.5935 100.094C23.0584 101.055 22.8053 102.031 21.7257 102.455C20.4652 102.95 19.7679 102.15 19.3753 101.086C15.9918 91.8754 12.6239 82.66 9.26109 73.4446C8.83751 72.2823 8.80135 71.151 10.1392 70.6138C11.4203 70.0973 12.1125 70.9702 12.4224 72.0395C12.908 73.6977 13.8946 73.6047 15.2118 73.1243C26.7724 68.9092 38.3433 64.7199 49.9194 60.5409C51.1747 60.0863 51.6861 59.5181 51.2315 58.0511C50.25 54.8898 50.5445 54.399 53.5922 53.2988C76.4964 45.0183 99.4006 36.7482 122.31 28.4781C123.121 28.1837 123.916 27.8531 124.733 27.5948C126.293 27.1041 126.763 26.1691 126.081 24.6452C125.146 22.548 125.833 21.2721 128.008 20.4973C136.521 17.4651 145.013 14.3761 153.495 11.2664C155.917 10.3779 156.754 11.8449 157.431 13.7045C160.334 21.7164 163.242 29.723 166.161 37.7297C167.87 42.42 169.591 47.1052 171.316 51.7904C172.421 54.7968 172.075 55.5045 169.079 56.5892C161.145 59.451 153.231 62.3592 145.287 65.1951C141.944 66.3884 141.681 66.3212 140.147 63.134C139.305 61.3829 138.194 61.853 136.954 62.3024C129.676 64.9472 122.403 67.6074 115.119 70.2471C110.181 72.0343 105.264 73.8681 100.279 75.516C98.3365 76.1565 97.6753 77.2413 97.9697 79.1474C98.0989 79.9945 98.2538 80.8727 98.1815 81.7147C97.8768 85.3202 98.6051 87.7739 102.221 90.0674C107.232 93.2443 108.399 102.103 100.873 106.38C99.819 106.98 98.1557 106.881 97.9646 108.565C97.7218 110.714 97.9129 112.873 98.3313 114.971C98.5328 115.988 99.7364 115.766 100.568 115.782C108.26 115.885 106.875 114.63 109.603 122.642C114.241 136.243 118.828 149.864 123.374 163.501C123.849 164.922 125.26 166.973 123.09 167.779C120.776 168.641 120.734 166.084 120.264 164.7C115.45 150.613 110.708 136.496 105.94 122.394C105.088 119.883 101.384 118.297 98.9047 119.33C97.6081 119.873 97.9129 121.02 97.9077 121.996C97.8819 129.228 97.8923 136.46 97.8923 143.691H97.9129L97.9181 143.666ZM65.6332 84.4886C65.9741 84.3646 66.4596 84.1941 66.9452 84.0185C72.9166 81.8335 78.8829 79.6329 84.8595 77.4685C101.839 71.3267 118.823 65.1848 135.818 59.0842C137.486 58.485 138.204 57.798 137.486 55.8816C134.599 48.1487 131.789 40.3848 129.061 32.5951C128.359 30.5857 127.465 30.2137 125.451 30.9524C113.348 35.4103 101.193 39.7288 89.0643 44.1143C78.3095 48.004 67.5702 51.9299 56.8207 55.8402C55.6222 56.2741 54.2275 56.4601 54.9507 58.4179C58.0191 66.7241 61.0203 75.0614 64.0473 83.3832C64.2901 84.0495 64.5484 84.7107 65.628 84.4834L65.6332 84.4886ZM153.381 15.0269C153.066 15.1096 152.808 15.1509 152.565 15.2387C145.292 17.8783 138.029 20.5283 130.751 23.1472C129.48 23.6018 129.614 24.3715 129.986 25.3839C134.248 37.0013 138.499 48.6291 142.719 60.262C143.246 61.7135 143.959 62.0493 145.441 61.4965C150.834 59.482 156.294 57.6482 161.687 55.6284C168.067 53.2368 168.103 53.1645 165.809 46.7746C162.235 36.8257 158.583 26.9078 154.926 16.9847C154.636 16.2047 154.724 14.9598 153.381 15.0269ZM52.0683 63.4233C50.4825 64.007 48.7933 64.6424 47.099 65.2571C36.9021 68.9298 26.7053 72.5974 16.5084 76.2701C15.3513 76.6885 14.1994 77.014 14.8657 78.7754C16.6324 83.44 18.2957 88.1458 19.99 92.8362C20.4498 94.1069 21.1781 94.5873 22.5573 94.0862C34.1954 89.8556 45.8386 85.6353 57.4974 81.4616C58.9799 80.9295 59.2743 80.1495 58.7423 78.729C57.0273 74.1367 55.3846 69.5135 53.7058 64.911C53.4424 64.1827 53.2099 63.4026 52.0683 63.4233ZM96.3426 103.958C99.8087 103.973 102.629 101.261 102.707 97.8468C102.779 94.6286 99.5659 91.2348 96.3839 91.1677C93.0159 91.1005 90.0612 94.0966 90.0251 97.6298C89.9837 101.334 92.5924 103.942 96.3426 103.958Z" fill="#F5F75E"/>
</svg>
