<svg width="187" height="93" viewBox="0 0 187 93" fill="none" xmlns="http://www.w3.org/2000/svg">
<path fill-rule="evenodd" clip-rule="evenodd" d="M81.0357 45.948L87.0098 37.2044C87.2386 36.8609 86.9638 36.4718 86.4834 36.4718L81.8713 36.4375C81.5278 36.4375 80.8412 36.8725 80.5437 37.2499L78.4612 39.9623L75.5658 43.7504L75.5886 37.2039C75.5886 36.7578 75.1193 36.4714 74.8333 36.4714H69.5454C69.1791 36.4714 68.8472 36.6088 68.836 37.2838C68.8249 37.9476 69.6484 38.085 69.6484 38.2679V55.7667C69.6484 56.0986 70.1062 56.6018 70.4269 56.6018L74.9586 56.5791C75.2794 56.5675 75.5538 56.1098 75.5538 55.8006L75.5649 48.5105L78.4603 52.0924L81.5274 55.8693C81.779 56.1669 82.2711 56.5791 82.7863 56.5791L87.7075 56.5447C88.1768 56.5447 88.1309 55.9724 88.0167 55.8238C85.677 52.5408 83.35 49.2489 81.0357 45.948ZM98.0188 36.4723H92.7889C92.171 36.4723 92.0336 36.8386 91.9305 37.2276C92.0447 37.9369 92.7889 38.1314 92.7889 38.143V55.8015C92.7889 56.2708 93.0753 56.58 93.4759 56.58L95.3527 56.5684L98.145 56.5456C98.6599 56.5456 98.7968 56.2369 98.7968 55.8015V37.2044C98.7968 36.7583 98.4194 36.4723 98.0188 36.4723Z" fill="white"/>
<path fill-rule="evenodd" clip-rule="evenodd" d="M113.936 27.455C108.375 26.0475 102.115 25.2578 95.4998 25.2578C95.4539 25.2578 95.4079 25.269 95.3513 25.269C89.3545 25.269 83.632 25.9328 78.4592 27.1115C63.9361 30.4306 53.7734 37.8465 53.7734 46.4183C53.7734 54.9906 63.9361 62.4061 78.4588 65.7248C83.6316 66.9039 89.3536 67.5673 95.3508 67.5673H95.4994C102.115 67.5673 108.374 66.7892 113.936 65.3817C127.726 61.9256 137.237 54.7158 137.237 46.4183C137.238 38.1213 127.727 30.9111 113.936 27.455ZM113.936 60.7697C108.455 62.0403 102.172 62.7612 95.4998 62.7612C95.4539 62.7612 95.4079 62.75 95.3513 62.75C89.3085 62.75 83.5749 62.1433 78.4592 61.0789C65.6528 58.4124 56.8178 52.839 56.8178 46.4188C56.8178 39.9986 65.6528 34.4252 78.4592 31.7587C83.5749 30.6943 89.3085 30.0875 95.3513 30.0764H95.4998C102.172 30.0764 108.455 30.7973 113.936 32.0674C125.987 34.837 134.193 40.2386 134.193 46.4183C134.193 52.598 125.987 58.0002 113.936 60.7697Z" fill="white"/>
<path fill-rule="evenodd" clip-rule="evenodd" d="M112.526 36.7553C112.355 36.3658 112.057 36 111.668 36H104.595C104.344 36 104 36.2061 104 36.5492C103.989 37.5561 105.042 37.5222 104.985 37.6707L99.0224 55.2605C98.9198 55.5581 99.1826 56.1072 99.5488 56.1072L103.703 56.0729C104.069 56.0729 104.584 55.7642 104.733 55.3176L106.702 49.4127C107.365 47.444 108.03 45.4757 108.681 43.5074C108.716 43.4275 108.819 43.3816 108.922 43.3816C109.082 43.3816 109.254 43.4387 109.288 43.5533L113.145 55.3868C113.225 55.65 113.763 56.0733 114.048 56.0733L118.374 56.1077C118.626 56.1077 118.924 55.604 118.844 55.3752L112.526 36.7553Z" fill="white"/>
</svg>
