<svg width="272" height="93" viewBox="0 0 272 93" fill="none" xmlns="http://www.w3.org/2000/svg">
<path fill-rule="evenodd" clip-rule="evenodd" d="M213.266 46.4131C213.266 31.8263 225.09 20 239.679 20C254.265 20 266.092 31.8252 266.092 46.4131C266.092 61.0009 254.265 72.825 239.679 72.825C225.09 72.8239 213.266 61.0009 213.266 46.4131Z" fill="white"/>
<path fill-rule="evenodd" clip-rule="evenodd" d="M220.891 46.3696C220.891 54.0175 225.446 60.6018 231.991 63.5576L221.782 40.6275C221.19 42.484 220.889 44.421 220.891 46.3696ZM224.428 35.3765L233.286 55.2729L236.96 47.0346H242.521L246.197 55.2684L255.053 35.3765C253.551 33.2873 251.638 31.5264 249.432 30.2011L242.521 45.7046H236.96L230.052 30.2C227.844 31.5246 225.931 33.2861 224.428 35.3765ZM257.698 40.6275L247.488 63.5576C254.033 60.6029 258.586 54.0186 258.586 46.3696C258.586 44.3667 258.276 42.4384 257.698 40.6275ZM245.274 64.393L239.742 51.9649L234.21 64.393C235.959 64.9293 237.815 65.2172 239.74 65.2172C241.667 65.2172 243.524 64.9282 245.274 64.393ZM234.21 28.3462L239.742 40.7742L245.274 28.3473C243.523 27.8099 241.665 27.522 239.74 27.522C237.815 27.522 235.957 27.8099 234.21 28.3462ZM216.977 46.3696C216.977 33.7981 227.168 23.6055 239.74 23.6055C252.311 23.6055 262.503 33.797 262.503 46.3696C262.503 58.9422 252.311 69.1337 239.74 69.1337C227.168 69.1337 216.977 58.9422 216.977 46.3696Z" fill="#1E1E1E"/>
<path fill-rule="evenodd" clip-rule="evenodd" d="M26.8008 55.6801H21.017L12 31.2165H17.8517L22.497 45.0194C23.0437 46.6418 23.5261 48.2852 23.9429 49.9458C24.3554 48.2558 24.8034 46.7743 25.3533 45.1909L30.1716 31.2165H35.9538L26.8008 55.6801ZM46.9312 48.0982C46.9312 50.1281 45.493 51.954 43.3364 51.954C41.4533 51.954 39.7077 50.3706 39.7077 48.1677C39.7077 46.1038 41.0779 44.2779 43.3024 44.2779C45.3215 44.2794 46.9312 45.9324 46.9312 48.0982ZM51.8761 48.0982C51.8761 43.4576 48.2705 40.042 43.3349 40.042C38.2185 40.042 34.7596 43.5966 34.7596 48.0657C34.7596 52.8145 38.4255 56.1945 43.0954 56.1945C48.717 56.1945 51.8761 52.1966 51.8761 48.0982ZM55.6223 55.6801V29.8633H60.5162V55.6801H55.6223ZM74.5415 55.6801L69.7866 48.608V55.6801H64.8927V29.8633H69.7866V46.7836L74.5415 40.5873H80.5385L74.7145 47.5405L80.9509 55.6801H74.5415ZM88.298 56.1327C84.8268 56.1327 83.0302 54.9988 82.0987 52.5519L86.2434 50.9375C86.6234 51.9339 87.4221 52.6569 88.4386 52.6569C89.4195 52.6569 90.0158 52.2769 90.0158 51.625C90.0158 49.4221 82.6162 50.3845 82.6162 45.1229C82.6162 42.3716 84.8608 40.0992 88.7182 40.0992C91.5622 40.0992 93.555 41.1311 94.5514 43.6445L90.6322 45.1584C90.1502 43.955 89.313 43.575 88.5066 43.575C87.8763 43.575 87.1749 43.955 87.1749 44.6425C87.1749 47.0508 94.5854 45.9494 94.5854 51.2434C94.5869 54.3083 91.8712 56.1327 88.298 56.1327ZM118.226 55.6801H113.607L111.022 48.2542C110.749 47.5155 110.541 46.754 110.401 45.9787C110.241 46.7596 110.034 47.5303 109.782 48.2867L107.196 55.6785H102.37L95.8552 40.5503H100.956L103.817 47.8402C104.162 48.6667 104.403 49.5967 104.679 50.4926C104.92 49.5967 105.161 48.6311 105.404 47.9097L107.954 40.5503H112.987L115.365 47.4262C115.711 48.4581 116.02 49.4236 116.227 50.4247C116.571 49.2877 116.916 48.2851 117.26 47.4262L119.948 40.5503H124.947L118.226 55.6801ZM138.061 48.3762C138.061 50.4432 136.715 52.3371 134.438 52.3371C132.092 52.3371 130.677 50.4417 130.677 48.2001C130.677 45.8922 132.229 44.3443 134.265 44.3443C136.578 44.3458 138.061 46.2043 138.061 48.3762ZM142.718 55.6785V40.5889H137.889V42.3453C137.061 41.0709 135.266 40.1069 133.161 40.1069C128.475 40.1069 125.655 43.5858 125.655 48.3407C125.655 52.9242 128.338 56.1976 132.713 56.1976C135.059 56.1976 136.646 55.3711 137.889 54.1276V55.6785H142.718ZM158.548 47.936C158.548 49.969 157.274 51.7594 155.106 51.7594C152.834 51.7594 151.456 50.2115 151.456 47.9731C151.456 45.9756 152.868 44.2856 154.933 44.2856C157.411 44.2856 158.548 46.3186 158.548 47.936ZM163.24 54.2419V40.5765H158.409V42.2928C157.479 40.816 155.76 40.1641 153.659 40.1641C149.564 40.1641 146.432 43.5302 146.432 48.075C146.432 52.0699 148.703 55.5519 153.521 55.5519C155.415 55.5519 157.067 55.0004 158.409 53.5189V55.6554C158.409 58.1116 157.309 59.4263 155.037 59.4263C153.557 59.4263 152.145 58.4916 152.145 57.1755H147.294C147.294 60.4937 150.012 63.0828 154.728 63.0828C157.481 63.0828 159.575 62.4278 161.256 60.8042C162.761 59.2857 163.24 57.591 163.24 54.2419ZM177.789 46.4113H171.733C171.905 44.7367 173.082 43.5055 174.847 43.5055C176.683 43.507 177.789 44.9761 177.789 46.4113ZM182.619 47.9298C182.619 42.9184 179.469 40.042 174.883 40.042C170.182 40.042 166.978 43.5765 166.978 48.2372C166.978 53.5653 170.768 56.1899 174.847 56.1899C178.339 56.1899 180.529 54.9834 182.276 52.7017L179.126 50.6286C178.133 51.9525 176.927 52.5951 175.366 52.5951C173.258 52.5951 171.803 51.1708 171.698 49.3031H182.587C182.619 48.7207 182.619 48.2048 182.619 47.9298ZM196.499 55.6801V47.3165C196.499 45.937 196.053 44.3474 194.201 44.3474C193.241 44.3474 191.219 44.902 191.219 47.729V55.6785H186.325V40.5703H191.219V42.5631C191.938 41.5652 193.343 40.2274 196.085 40.2274C198.013 40.2274 199.257 40.9133 200.046 41.7042C201.012 42.6666 201.392 43.904 201.392 46.11V55.6801H196.499Z" fill="white"/>
</svg>
