<svg width="187" height="93" viewBox="0 0 187 93" fill="none" xmlns="http://www.w3.org/2000/svg">
<path fill-rule="evenodd" clip-rule="evenodd" d="M75.0791 47.0711C75.0791 54.7688 71.5342 57.7058 64.4443 57.7058C57.2531 57.7058 54.1133 53.7563 54.1133 47.6789V43.8298H61.9124V46.9701C61.9124 49.097 61.9124 51.1225 64.242 51.1225C66.4703 51.1225 66.3689 48.3882 66.3689 47.1729V29.2441H75.0791V47.0711ZM82.8782 44.6396C83.1819 42.5127 84.3977 41.297 86.4231 41.297C88.2463 41.297 89.563 42.8164 89.563 44.6396H82.8782ZM96.3496 48.6914C96.3496 40.7914 93.1083 36.3344 85.8157 36.3344C79.9412 36.3344 76.0925 41.0951 76.0925 46.9697C76.0925 53.7558 80.549 57.6044 86.4236 57.6044C90.6773 57.6044 94.5264 55.579 95.9445 51.2234H89.3611C88.7537 52.135 87.5379 52.641 86.4236 52.641C84.1953 52.641 82.9801 51.0206 82.7777 48.6914H96.3496ZM103.642 44.6396C103.946 42.5127 105.161 41.297 107.187 41.297C109.01 41.297 110.326 42.8164 110.326 44.6396H103.642ZM117.113 48.6914C117.113 40.7914 113.872 36.3344 106.579 36.3344C100.705 36.3344 96.856 41.0951 96.856 46.9697C96.856 53.7558 101.312 57.6044 107.187 57.6044C111.34 57.6044 115.289 55.579 116.707 51.2234H110.123C109.516 52.135 108.3 52.641 107.186 52.641C104.958 52.641 103.743 51.0206 103.54 48.6914H117.113ZM124.608 46.9697C124.608 44.5386 125.114 42.0062 127.646 42.0062C130.178 42.0062 130.786 44.5382 130.786 46.9697C130.786 49.2988 130.178 51.9322 127.646 51.9322C125.114 51.9322 124.608 49.2988 124.608 46.9697ZM117.821 63.5804H124.81V54.8702H124.912C125.925 56.5919 127.85 57.6044 129.976 57.6044C136.155 57.6044 137.775 51.8308 137.775 47.0711C137.775 42.0067 135.345 36.3344 130.077 36.3344C126.634 36.3344 125.519 37.7525 124.608 39.0692V36.8409H117.822V63.5804H117.821ZM134.635 60.035C134.635 59.1234 135.243 58.516 136.053 58.516C136.863 58.516 137.471 59.1234 137.471 60.035C137.471 60.8452 136.863 61.4535 136.053 61.4535C135.243 61.4535 134.635 60.8452 134.635 60.035ZM134.229 60.035C134.229 60.9466 135.04 61.7577 136.053 61.7577C136.965 61.7577 137.775 60.9466 137.775 60.035C137.775 59.022 136.965 58.3132 136.053 58.3132C135.04 58.3132 134.229 59.022 134.229 60.035ZM135.344 61.0484H135.648V60.1359H136.053L136.559 61.0484H136.965L136.357 60.1359C136.661 60.1359 136.864 59.9331 136.864 59.5285C136.864 59.2248 136.661 59.022 136.155 59.022H135.345V61.0484H135.344ZM135.648 59.2248H136.155C136.358 59.2248 136.56 59.3262 136.56 59.5285C136.56 59.8322 136.256 59.9336 136.053 59.9336H135.648V59.2248Z" fill="white"/>
</svg>
