<svg width="24" height="24" viewBox="0 0 24 24" fill="none" xmlns="http://www.w3.org/2000/svg">
<path d="M22.749 22.4409L21.9754 23.2143C21.5484 23.6414 20.8559 23.6414 20.4286 23.2143L11.5346 14.3202L2.64049 23.2141C2.21344 23.6414 1.5209 23.6414 1.09376 23.2141L0.320353 22.4408C-0.106784 22.0137 -0.106784 21.3212 0.320353 20.894L9.21448 12L0.320353 3.10582C-0.106784 2.67877 -0.106784 1.98623 0.320353 1.55909L1.09374 0.7857C1.52088 0.358563 2.21344 0.358563 2.64049 0.7857L11.5346 9.67981L20.4286 0.785685C20.8559 0.358548 21.5484 0.358548 21.9754 0.785685L22.749 1.55907C23.176 1.98621 23.176 2.67877 22.749 3.10582L13.8548 12L22.749 20.894C23.176 21.3212 23.176 22.0137 22.749 22.4409Z" fill="black"/>
</svg>
