<svg width="49" height="36" viewBox="0 0 49 36" fill="none" xmlns="http://www.w3.org/2000/svg">
<path d="M49 36H30.5L30.5 20.5116C30.5 17.7209 30.8889 15.0698 31.6667 12.5581C32.3333 10.1395 33.4444 8 35 6.13953C36.4444 4.27907 38.3333 2.7907 40.6667 1.67442C42.8889 0.55814 45.6111 2.35838e-07 48.8333 0V6.97674C46.9444 6.97674 45.3889 7.34884 44.1667 8.09302C42.9444 8.93023 41.9444 10 41.1667 11.3023C40.3889 12.6046 39.8889 14.0465 39.6667 15.6279C39.3333 17.3023 39.1667 18.9302 39.1667 20.5116L49 20.5116V36ZM18.5 36L1.61732e-06 36L0 20.5116C-2.9141e-07 17.7209 0.388888 15.0698 1.16667 12.5581C1.83333 10.1395 2.94444 8 4.5 6.13953C5.94444 4.27907 7.83333 2.7907 10.1667 1.67442C12.3889 0.558142 15.1111 2.46817e-06 18.3333 2.23233e-06L18.3333 6.97675C16.4444 6.97675 14.8889 7.34884 13.6667 8.09302C12.4444 8.93023 11.4444 10 10.6667 11.3023C9.88889 12.6046 9.38889 14.0465 9.16667 15.6279C8.83333 17.3023 8.66666 18.9302 8.66666 20.5116L18.5 20.5116L18.5 36Z" fill="#006E50"/>
</svg>
