<svg width="25" height="24" viewBox="0 0 25 24" fill="none" xmlns="http://www.w3.org/2000/svg">
<path d="M12.5129 24.0037C5.93765 24.0049 0.546757 18.7273 0.499336 12.0902C0.451916 5.42299 5.80464 0.0459836 12.4123 0.00029813C19.0662 -0.0459657 24.4501 5.29808 24.4987 11.9179C24.5478 18.5856 19.1598 23.9927 12.5129 24.0037ZM12.447 8.66551C11.1354 8.66551 9.82439 8.6684 8.51281 8.66204C8.32717 8.66088 8.2306 8.71524 8.19879 8.9055C8.09759 9.50404 7.98713 10.1026 7.95302 10.7086C7.86396 12.2816 8.0652 13.8251 8.45845 15.3472C8.50587 15.5316 8.59203 15.5924 8.77767 15.5924C11.2221 15.5877 13.6672 15.5877 16.1116 15.5924C16.2978 15.5924 16.3834 15.5316 16.4314 15.3477C16.9866 13.2352 17.1057 11.1065 16.7027 8.95292C16.6587 8.71814 16.5592 8.65857 16.3325 8.66031C15.0372 8.67014 13.7424 8.66493 12.447 8.66551ZM20.1615 15.5895C21.0272 15.5895 21.8929 15.586 22.758 15.5924C22.9327 15.5935 23.0194 15.5316 23.0703 15.3639C23.7168 13.226 23.744 11.0822 23.1541 8.92806C23.1004 8.73201 23.013 8.65799 22.802 8.65915C21.1677 8.66782 19.534 8.66378 17.8997 8.66435C17.5967 8.66435 17.5851 8.68344 17.6372 8.98704C17.7806 9.82442 17.883 10.6687 17.8807 11.5177C17.8766 12.8073 17.691 14.0795 17.381 15.331C17.3266 15.5501 17.3816 15.5947 17.5892 15.5929C18.4468 15.5848 19.3044 15.5895 20.1615 15.5895ZM4.76949 15.5895C5.60339 15.5895 6.4373 15.5895 7.27062 15.5895C7.57076 15.5895 7.56729 15.5895 7.49732 15.2905C7.18504 13.9633 6.96875 12.624 7.00923 11.2545C7.03236 10.4692 7.11044 9.68968 7.26889 8.91938C7.30417 8.74763 7.27525 8.66204 7.07458 8.66262C5.42296 8.66725 3.77192 8.66609 2.1203 8.66262C1.97573 8.66262 1.90229 8.71351 1.86296 8.85693C1.58538 9.86837 1.41189 10.8995 1.40726 11.9462C1.40264 13.0843 1.58885 14.2016 1.90691 15.2969C1.96937 15.5108 2.05958 15.5976 2.29148 15.5941C3.11671 15.5808 3.9431 15.5889 4.76833 15.5889L4.76949 15.5895ZM12.4499 7.76684C13.6805 7.76626 14.9111 7.76279 16.1411 7.76915C16.3441 7.77031 16.41 7.74428 16.3366 7.51354C15.9792 6.38991 15.4986 5.32526 14.8995 4.30919C14.2674 3.23645 13.5162 2.25855 12.6627 1.35525C12.5042 1.18754 12.4076 1.17366 12.2388 1.34658C11.4488 2.15561 10.7745 3.05082 10.1702 4.00385C9.48493 5.08354 8.97255 6.24187 8.5637 7.44935C8.45845 7.76105 8.46712 7.76684 8.80658 7.76684C10.021 7.76684 11.2354 7.76684 12.4493 7.76684H12.4499ZM19.8081 16.5176C18.9667 16.5176 18.1253 16.5205 17.2838 16.5153C17.1115 16.5142 17.0005 16.5529 16.9386 16.738C16.5945 17.7685 16.1296 18.7458 15.6074 19.6971C15.0059 20.7913 14.305 21.8195 13.5608 22.8193C13.5238 22.8691 13.4538 22.9136 13.4867 22.9853C13.5157 23.0484 13.5862 23.0287 13.6394 23.0218C14.515 22.909 15.3824 22.7557 16.2152 22.4492C17.6193 21.9317 18.8863 21.1868 19.9885 20.1679C21.0399 19.1957 21.8842 18.0721 22.4972 16.7767C22.6094 16.539 22.5949 16.5188 22.333 16.5182C21.4915 16.5165 20.6501 16.5176 19.8087 16.5171L19.8081 16.5176ZM13.5822 0.974152C13.9286 1.39457 14.2408 1.75254 14.5306 2.12901C15.7728 3.74246 16.7044 5.51552 17.2786 7.47075C17.3451 7.69802 17.4516 7.77262 17.6863 7.77146C19.2645 7.76163 20.8427 7.76684 22.4209 7.76626C22.7337 7.76626 22.7401 7.76105 22.6146 7.48058C22.167 6.47608 21.5812 5.56121 20.856 4.73251C19.4155 3.08783 17.6488 1.95726 15.5518 1.34542C14.9313 1.16441 14.2946 1.05569 13.5816 0.97473L13.5822 0.974152ZM11.4454 23.0235C11.4072 22.9477 11.3939 22.9107 11.3719 22.8795C11.0932 22.4822 10.8 22.0965 10.5241 21.6969C9.46006 20.1586 8.57122 18.5307 7.95995 16.7588C7.89461 16.5697 7.79803 16.5101 7.60835 16.5136C7.05839 16.5234 6.50785 16.5171 5.95731 16.5171C4.85681 16.5171 3.75573 16.5194 2.65523 16.5147C2.44704 16.5136 2.4002 16.5645 2.49041 16.7675C2.62285 17.0647 2.7894 17.3411 2.9519 17.6205C3.62619 18.7811 4.49595 19.7723 5.534 20.6201C6.51537 21.4222 7.61124 22.0207 8.79791 22.4539C9.63702 22.7598 10.5079 22.9286 11.4454 23.0235ZM11.2898 1.02331C11.1568 1.02331 11.092 1.01637 11.029 1.02446C9.68791 1.1887 8.42317 1.60103 7.23882 2.24352C6.01803 2.90567 4.95281 3.76733 4.05355 4.82908C3.35902 5.64969 2.78997 6.54836 2.35741 7.53378C2.27876 7.71363 2.30594 7.77146 2.51297 7.77088C4.09924 7.76452 5.68609 7.7651 7.27236 7.76973C7.44527 7.76973 7.54185 7.71999 7.5829 7.54477C7.66097 7.21341 7.79341 6.89939 7.90617 6.57901C8.52553 4.81925 9.45601 3.23877 10.623 1.79071C10.8243 1.5403 11.0278 1.29222 11.2904 1.02389L11.2898 1.02331ZM12.4487 16.5182C11.3401 16.5182 10.2321 16.5171 9.12349 16.5188C8.86846 16.5188 8.85111 16.5442 8.94133 16.7854C9.06855 17.126 9.20387 17.4632 9.35365 17.7957C10.1263 19.5092 11.1337 21.0764 12.2862 22.5556C12.4198 22.7274 12.4961 22.7101 12.6054 22.5528C12.7211 22.3868 12.8425 22.2249 12.9645 22.0641C14.1952 20.446 15.2182 18.71 15.9422 16.8051C16.0463 16.5309 16.0394 16.5188 15.749 16.5182C14.6485 16.5171 13.5486 16.5182 12.4481 16.5182H12.4487Z" fill="black"/>
</svg>
