<svg width="24" height="20" viewBox="0 0 24 20" fill="none" xmlns="http://www.w3.org/2000/svg">
<path d="M24.0008 10.0001C24.0008 10.2653 23.8954 10.5196 23.7079 10.7072C23.5204 10.8947 23.266 11.0001 23.0008 11.0001H3.41454L10.7083 18.2926C10.8012 18.3855 10.8749 18.4958 10.9252 18.6172C10.9755 18.7386 11.0013 18.8687 11.0013 19.0001C11.0013 19.1315 10.9755 19.2616 10.9252 19.383C10.8749 19.5044 10.8012 19.6147 10.7083 19.7076C10.6154 19.8005 10.5051 19.8742 10.3837 19.9245C10.2623 19.9747 10.1322 20.0006 10.0008 20.0006C9.86939 20.0006 9.73928 19.9747 9.61789 19.9245C9.4965 19.8742 9.3862 19.8005 9.29329 19.7076L0.293287 10.7076C0.20031 10.6147 0.126551 10.5044 0.0762269 10.383C0.0259027 10.2616 0 10.1315 0 10.0001C0 9.86865 0.0259027 9.73853 0.0762269 9.61713C0.126551 9.49573 0.20031 9.38544 0.293287 9.29257L9.29329 0.292568C9.48093 0.104927 9.73542 -0.000488283 10.0008 -0.000488281C10.2662 -0.000488279 10.5206 0.104927 10.7083 0.292568C10.8959 0.480208 11.0013 0.734704 11.0013 1.00007C11.0013 1.26543 10.8959 1.51993 10.7083 1.70757L3.41454 9.00007H23.0008C23.266 9.00007 23.5204 9.10542 23.7079 9.29296C23.8954 9.4805 24.0008 9.73485 24.0008 10.0001Z" fill="#4B4B4B"/>
</svg>
