<svg width="180" height="180" viewBox="0 0 180 180" fill="none" xmlns="http://www.w3.org/2000/svg">
<path d="M14.5135 11C11.5582 11.0481 10.3166 12.4471 10.7013 15.21C14.8763 45.2396 26.8156 71.7587 46.5672 94.776C50.1564 98.9598 54.1085 102.772 58.0125 106.645C59.0967 107.721 59.7612 108.862 60.0148 110.414C61.405 119.004 62.9176 127.577 64.3472 136.164C64.6444 137.952 65.357 139.412 66.6598 140.71C75.1148 149.108 83.5261 157.55 91.9373 165.992C93.074 167.133 94.2063 168.209 95.99 167.697C97.8917 167.155 98.0359 165.485 98.1802 163.946C98.8666 156.654 99.483 149.357 100.152 142.061C100.239 141.095 99.7322 139.74 100.733 139.276C101.822 138.773 102.316 140.212 103.072 140.784C103.505 141.112 103.85 141.558 104.248 141.939C106.718 144.308 108.449 144.426 110.78 141.834C112.673 139.731 114.019 139.722 115.807 141.869C117.324 143.692 119.108 145.309 120.848 146.936C122.977 148.925 124.24 148.938 126.264 146.927C133.163 140.081 140.035 133.213 146.882 126.318C149.076 124.106 149.05 122.956 146.912 120.736C145.067 118.821 143.227 116.897 141.273 115.096C139.904 113.833 139.681 112.775 141.181 111.489C141.872 110.899 142.422 110.143 143.026 109.456C144.346 107.953 144.28 106.501 142.86 105.093C141.885 104.123 140.919 103.148 139.957 102.164C139.581 101.775 139.034 101.386 139.183 100.796C139.349 100.153 140.027 100.21 140.564 100.162C146.947 99.6068 153.334 99.056 159.717 98.4964C161.177 98.3696 162.633 98.2166 164.089 98.0724C165.671 97.915 167.276 97.7532 167.857 95.904C168.443 94.0503 167.105 93.0142 166.017 91.9213C161.295 87.1779 156.556 82.4564 151.817 77.7306C148.053 73.9752 144.272 70.2374 140.538 66.4558C139.402 65.3016 138.142 64.5759 136.512 64.3136C127.558 62.8666 118.623 61.3277 109.665 59.885C108.095 59.6315 106.985 58.8271 105.966 57.7254C88.7984 39.1804 68.0894 26.0869 44.2808 17.8462C34.9077 14.6023 25.2593 12.4121 15.4184 11.0831C15.0556 11.035 14.6883 11.0219 14.496 11.0087L14.5135 11ZM89.3973 115.402C88.9602 115.205 88.2782 114.939 87.6268 114.611C70.8261 106.099 58.5415 99.4495 46.7071 84.8215C38.8817 75.1512 31.0037 59.3298 26.0331 47.9895C25.4385 46.6342 23.9783 44.9467 26.9162 44.0024C35.3318 41.3094 41.0238 35.7048 43.8611 27.3067C44.4032 25.7066 45.1377 25.3 46.7596 25.9514C50.8647 27.5908 54.8561 29.4707 58.7775 31.4904C73.3399 38.9836 83.1414 44.562 93.9221 56.8423C101.232 65.1705 110.137 78.8016 115.09 88.7299C115.549 89.6523 115.912 90.483 114.99 91.3792C107.029 99.1347 99.3825 107.209 91.1767 114.711C90.7526 115.1 90.2936 115.45 89.4017 115.402H89.3973Z" stroke="black" stroke-width="2.40813" stroke-miterlimit="10"/>
<path d="M64.7131 48.3131C55.48 48.4224 48.236 56.0118 48.3671 65.4461C48.4895 74.2464 56.315 81.9932 65.0017 81.9101C74.3266 81.8183 82.1477 73.9535 81.9641 64.8559C81.7674 55.3254 74.3398 48.1995 64.7131 48.3131Z" stroke="black" stroke-width="2.40813" stroke-miterlimit="10"/>
<path d="M151.229 142.559C151.041 142.371 151.041 142.066 151.229 141.878C151.417 141.69 151.722 141.69 151.91 141.878L167.916 157.884C168.104 158.072 168.104 158.377 167.916 158.565C167.728 158.753 167.423 158.753 167.235 158.565L151.229 142.559Z" stroke="black" stroke-width="2.40813" stroke-miterlimit="10"/>
<path d="M146.415 147.375C146.227 147.187 146.227 146.882 146.415 146.694C146.604 146.506 146.909 146.506 147.097 146.694L163.103 162.701C163.291 162.889 163.291 163.194 163.103 163.382C162.915 163.57 162.61 163.57 162.422 163.382L146.415 147.375Z" stroke="black" stroke-width="2.40813" stroke-miterlimit="10"/>
<path d="M141.596 152.192C141.408 152.004 141.408 151.699 141.596 151.511C141.784 151.323 142.089 151.323 142.277 151.511L158.283 167.517C158.472 167.705 158.472 168.01 158.283 168.198C158.095 168.386 157.79 168.386 157.602 168.198L141.596 152.192Z" stroke="black" stroke-width="2.40813" stroke-miterlimit="10"/>
</svg>
