<svg width="13" height="12" viewBox="0 0 13 12" fill="none" xmlns="http://www.w3.org/2000/svg">
<path fill-rule="evenodd" clip-rule="evenodd" d="M6.89776 0.170062C6.67061 -0.0562505 6.30302 -0.0555792 6.0767 0.171562C5.85039 0.398703 5.85106 0.7663 6.0782 0.992613L10.5138 5.41208L1.08028 5.42931C0.759637 5.42989 0.500181 5.6903 0.500767 6.01094C0.501352 6.33158 0.761757 6.59103 1.0824 6.59045L10.516 6.57322L6.0965 11.0089C5.87018 11.236 5.87085 11.6036 6.09799 11.8299C6.32514 12.0563 6.69273 12.0556 6.91905 11.8284L12.2166 6.48851C12.3862 6.3869 12.4996 6.20114 12.4992 5.98903C12.4989 5.81358 12.4208 5.65646 12.2976 5.55023L6.89776 0.170062Z" fill="#1E1E1E"/>
</svg>
