<svg width="180" height="180" viewBox="0 0 180 180" fill="none" xmlns="http://www.w3.org/2000/svg">
<path d="M179.538 89.9999C179.538 139.451 139.451 179.538 90 179.538C40.5493 179.538 0.461538 139.451 0.461538 89.9999C0.461538 40.5493 40.5493 0.461538 90 0.461538C139.451 0.461538 179.538 40.5493 179.538 89.9999Z" fill="white" stroke="black" stroke-width="0.923077"/>
<path d="M48.0375 50.6338C48.4006 50.6492 48.7483 50.7309 49.0756 50.8842C50.5483 51.5841 51.9802 52.4628 53.4069 53.2496L62.9489 58.5272L93.9626 75.4995C98.8309 78.1715 103.632 80.9558 108.552 83.5459C108.578 81.2877 108.568 79.0297 108.552 76.7766C108.542 75.6731 108.445 74.5286 108.527 73.4303C108.558 73.0624 108.644 72.1377 108.931 71.8976C109.11 71.7494 109.437 71.6932 109.662 71.6779C112.168 71.5348 114.888 71.6575 117.419 71.6421L126.67 71.6166C128.219 71.6166 131.288 71.4378 132.673 71.8312C133.461 72.056 134.064 72.5055 134.555 73.1543C135.598 74.5287 136.232 76.3576 136.979 77.9107L140.85 85.8601C141.581 87.3877 142.256 89.0071 143.095 90.4734L143.131 90.5347C145.074 90.877 146.884 91.909 148.045 93.5131C148.679 94.3969 149.063 95.3983 149.216 96.4711C149.451 98.1315 149.339 99.8992 149.339 101.575L149.328 110.091L149.349 114.051C149.354 114.756 149.431 115.563 149.298 116.258C149.221 116.661 148.965 116.881 148.633 117.101C147.145 117.198 145.682 117.136 144.194 117.126L137.23 117.111C135.91 117.111 134.581 117.075 133.272 117.188C133.231 117.974 133.262 118.761 133.18 119.553C132.873 122.557 131.646 125.5 129.529 127.681C126.89 130.404 123.505 131.906 119.705 131.947C115.982 131.988 112.505 130.45 109.872 127.855C106.839 124.861 106.021 121.31 106.001 117.182C104.952 117.049 103.817 117.131 102.759 117.131L96.7502 117.126L76.4488 117.116L69.9085 117.111C69.8369 117.877 69.8829 118.649 69.8011 119.415C69.4943 122.439 68.3898 125.285 66.3341 127.548C66.2574 127.63 66.1807 127.712 66.104 127.788C66.0273 127.87 65.9506 127.952 65.8739 128.029C65.792 128.11 65.7153 128.187 65.6335 128.264C65.5517 128.34 65.4699 128.417 65.3881 128.488C65.3063 128.565 65.2244 128.637 65.1426 128.713C65.0557 128.785 64.9688 128.856 64.8869 128.928C64.8 128.994 64.7131 129.066 64.6261 129.132C64.5392 129.204 64.4472 129.27 64.3602 129.336C64.2682 129.403 64.1813 129.469 64.0892 129.531C63.9972 129.597 63.9051 129.658 63.8131 129.72C63.721 129.781 63.629 129.842 63.5318 129.904C63.4398 129.96 63.3426 130.021 63.2506 130.077C63.1534 130.133 63.0563 130.19 62.9591 130.246C62.8619 130.302 62.7648 130.353 62.6676 130.404C62.5705 130.46 62.4733 130.511 62.371 130.557C62.2739 130.609 62.1716 130.66 62.0693 130.706C61.9722 130.752 61.8699 130.798 61.7676 130.844C61.6653 130.89 61.5631 130.93 61.4608 130.976C61.3585 131.017 61.2563 131.058 61.1489 131.099C61.0466 131.14 60.9443 131.176 60.8369 131.216C60.7347 131.252 60.6273 131.288 60.525 131.324C60.4176 131.354 60.3102 131.39 60.2029 131.421C60.0955 131.457 59.9932 131.487 59.8858 131.513C59.7784 131.543 59.671 131.574 59.5585 131.6C59.4511 131.625 59.3438 131.651 59.2364 131.676C59.129 131.702 59.0165 131.722 58.9091 131.743C58.8017 131.763 58.6892 131.784 58.5818 131.804C58.4693 131.824 58.3619 131.84 58.2494 131.855C58.1421 131.87 58.0296 131.886 57.9222 131.901C57.8097 131.916 57.6972 131.927 57.5898 131.937C57.4773 131.947 57.3648 131.957 57.2574 131.962C57.1449 131.973 57.0324 131.978 56.925 131.983C56.8125 131.988 56.7 131.993 56.5875 131.993C56.475 131.998 56.3625 131.998 56.25 131.998C56.1375 131.993 56.025 131.993 55.9125 131.988C55.8 131.988 55.6875 131.983 55.575 131.973C55.4625 131.967 55.35 131.962 55.2375 131.952C55.125 131.942 55.0125 131.932 54.9 131.922C54.7875 131.906 54.6801 131.896 54.5676 131.881C54.4551 131.865 54.3426 131.85 54.2352 131.835C54.1227 131.814 54.0102 131.794 53.8977 131.778C53.7903 131.758 53.6778 131.732 53.5705 131.712C53.458 131.687 53.3506 131.666 53.2381 131.641C53.1307 131.615 53.0233 131.584 52.9108 131.559C52.8034 131.528 52.696 131.497 52.5886 131.467C52.4813 131.436 52.3688 131.406 52.2665 131.37C52.1591 131.339 52.0517 131.303 51.9443 131.268C51.837 131.232 51.7296 131.191 51.6273 131.155C51.5199 131.114 51.4176 131.073 51.3102 131.033C51.208 130.992 51.1006 130.951 50.9983 130.905C50.896 130.859 50.7938 130.818 50.6915 130.767C50.5892 130.721 50.487 130.675 50.3847 130.624C50.2824 130.578 50.1852 130.527 50.083 130.476C49.9858 130.425 49.8835 130.368 49.7864 130.317C49.6892 130.261 49.5921 130.205 49.4949 130.149C49.3977 130.093 49.3006 130.036 49.2034 129.975C49.1063 129.919 49.0142 129.858 48.9171 129.796C48.825 129.735 48.733 129.674 48.6358 129.607C48.5438 129.546 48.4517 129.479 48.3597 129.413C48.2727 129.352 48.1807 129.28 48.0938 129.214C48.0017 129.147 47.9148 129.076 47.8278 129.004C47.7358 128.938 47.6489 128.866 47.5671 128.795C47.4801 128.718 47.3932 128.647 47.3114 128.57C47.2244 128.499 47.1426 128.422 47.0608 128.345C43.5016 125.07 42.8574 121.831 42.663 117.198C39.8659 117.039 37.0074 117.121 34.2051 117.182C33.5915 117.198 32.3847 117.3 31.9244 116.82C31.5972 116.477 31.592 115.803 31.5869 115.353C31.5511 111.987 31.6074 108.615 31.6023 105.253C31.5972 103.583 31.4386 100.44 31.7301 98.9538C31.8886 98.1517 32.3284 97.3598 32.9114 96.7825C32.9881 96.7058 33.0699 96.6292 33.1568 96.5526C33.2437 96.4811 33.3307 96.4095 33.4227 96.3431C33.5148 96.2767 33.6068 96.2154 33.704 96.1592C33.8011 96.0979 33.8983 96.0468 34.0006 95.9957C34.0977 95.9446 34.2 95.8986 34.3074 95.8527C34.4096 95.8118 34.517 95.7709 34.6244 95.7403C34.7318 95.7045 34.8392 95.6738 34.9517 95.6534C35.0591 95.6279 35.1716 95.6074 35.2841 95.587C36.7874 95.3724 38.383 95.4746 39.9067 95.4797L47.4544 95.4848L74.0146 95.4797C73.5492 94.8258 72.9867 94.2178 72.4805 93.5945L69.4889 89.8752L60.7395 79.029L50.5224 66.3538C49.7451 65.4036 48.9628 64.4635 48.1958 63.503C47.664 62.8338 47.173 62.1287 46.5951 61.5004C46.4878 64.2081 46.5747 66.9465 46.5798 69.6593C46.5849 70.722 46.6412 71.8152 46.5645 72.8677C46.5389 73.21 46.5031 73.6596 46.2934 73.9355C45.777 74.6149 44.0486 74.712 43.1844 75.7032C42.7446 76.2038 42.5912 76.8476 42.6372 77.5066C42.6883 78.3394 43.0054 79.1721 43.6497 79.729C43.6855 79.7596 43.7213 79.7903 43.7622 79.8209C43.798 79.8516 43.8389 79.8771 43.8747 79.9078C43.9156 79.9333 43.9565 79.9589 43.9974 79.9844L44.1201 80.061C44.1662 80.0815 44.2071 80.107 44.248 80.1274C44.294 80.1479 44.3349 80.1683 44.3809 80.1888C44.427 80.2092 44.4679 80.2296 44.5139 80.245C44.5599 80.2603 44.6059 80.2807 44.652 80.296C44.698 80.3114 44.744 80.3216 44.79 80.3369C44.8361 80.3471 44.8821 80.3625 44.9281 80.3727C44.9792 80.3829 45.0253 80.3931 45.0713 80.4033C45.1173 80.4084 45.1685 80.4187 45.2145 80.4238C45.2656 80.4289 45.3116 80.434 45.3577 80.4391C45.4088 80.4391 45.4548 80.4442 45.506 80.4442C45.552 80.4442 45.6031 80.4493 45.6491 80.4442C45.6952 80.4442 45.7463 80.4442 45.7923 80.4391C46.544 80.3829 47.2651 79.9895 47.7407 79.4071C48.4668 78.5181 48.4259 77.568 48.3032 76.5001C49.0242 76.6738 49.7402 76.8781 50.4509 77.0672C50.5122 78.0787 50.4611 78.9063 49.9957 79.8209C49.3668 81.0572 48.1906 81.9973 46.8764 82.4111C46.7997 82.4367 46.7281 82.4571 46.6514 82.4776C46.5747 82.498 46.498 82.5133 46.4213 82.5287C46.3446 82.544 46.2679 82.5593 46.1912 82.5695C46.1145 82.5797 46.0378 82.59 45.9611 82.6002C45.8844 82.6053 45.8026 82.6155 45.7259 82.6155C45.6492 82.6206 45.5725 82.6257 45.4958 82.6257C45.4139 82.6257 45.3372 82.6257 45.2605 82.6206C45.1838 82.6155 45.102 82.6104 45.0253 82.6053C44.9486 82.6002 44.8719 82.59 44.7952 82.5797C44.7185 82.5695 44.6418 82.5542 44.5651 82.5389C44.4884 82.5235 44.4117 82.5082 44.335 82.4929C44.2582 82.4725 44.1815 82.452 44.1099 82.4316C44.0332 82.406 43.9617 82.3856 43.8849 82.3601C43.8133 82.3345 43.7418 82.3039 43.6651 82.2783C43.5935 82.2477 43.5219 82.217 43.4503 82.1864C43.3838 82.1506 43.3122 82.1148 43.2406 82.0791C42.0338 81.4507 41.1389 80.3011 40.7349 79.0086C40.7093 78.9268 40.6838 78.8451 40.6633 78.7633C40.6428 78.6816 40.6224 78.5947 40.607 78.513C40.5866 78.4313 40.5713 78.3444 40.561 78.2627C40.5457 78.1758 40.5355 78.089 40.5252 78.0072C40.515 77.9204 40.5099 77.8335 40.5048 77.7518C40.4997 77.6649 40.4997 77.5781 40.4997 77.4912C40.4945 77.4095 40.4997 77.3226 40.5048 77.2358C40.5048 77.1489 40.5099 77.0672 40.5201 76.9803C40.5303 76.8935 40.5406 76.8066 40.5508 76.7249C40.561 76.638 40.5764 76.5563 40.5917 76.4695C40.6122 76.3877 40.6275 76.306 40.648 76.2191C40.6684 76.1374 40.694 76.0556 40.7195 75.9739C40.7451 75.8922 40.7707 75.8104 40.7963 75.7287C40.8269 75.6469 40.8576 75.5703 40.8934 75.4885C40.9241 75.4119 40.9599 75.3302 40.9957 75.2535C41.0315 75.1769 41.0724 75.1003 41.1133 75.0236C41.8394 73.6852 43.0361 72.8779 44.4729 72.4487L44.4678 59.416C43.9207 58.762 43.2815 58.0877 42.8621 57.3367C42.7087 57.071 42.5144 56.6776 42.6166 56.366C42.9286 55.4106 46.5592 51.7067 47.4337 50.9914C47.6229 50.8433 47.8176 50.736 48.0375 50.6338ZM36.0256 97.6612C35.325 97.7634 34.6756 97.983 34.2358 98.5757C33.8881 99.0559 33.7909 99.6128 33.7295 100.185C33.6426 100.977 33.6835 101.81 33.6835 102.607L33.6988 106.454V111.874C33.704 112.901 33.6682 113.943 33.7295 114.965L43.1233 114.96C44.2074 111.179 46.2018 108.232 49.6943 106.285C52.8442 104.522 56.5158 104.175 59.9676 105.171C63.4346 106.178 66.5694 108.804 68.3029 111.961C68.8296 112.922 69.1671 113.928 69.5302 114.955H102.856C104.057 114.955 105.269 114.924 106.471 114.97C106.696 113.984 106.993 112.968 107.473 112.079C107.78 111.512 108.312 111.011 108.465 110.367C108.68 109.468 108.609 108.451 108.603 107.527C108.598 106.341 108.588 105.156 108.568 103.976C108.547 101.871 108.537 99.7662 108.542 97.6614C102.043 97.5745 95.5431 97.6461 89.0431 97.6461L57.0516 97.6205L41.3935 97.6256H37.9163C37.3129 97.6256 36.6187 97.5641 36.0256 97.6612ZM48.5233 52.9841C47.3676 54.0723 46.2836 55.2166 45.2149 56.3816C45.8745 57.3012 46.6211 58.1595 47.3268 59.0381C48.6871 60.7445 50.0575 62.4407 51.4382 64.1317L61.7575 76.8886L70.7983 88.1026C72.542 90.279 74.2398 92.537 76.0858 94.6215C76.3876 94.9587 76.7148 95.3163 77.1751 95.3981C78.2233 95.5769 79.3944 95.4798 80.458 95.4747L85.587 95.4696L105.387 95.4645C106.446 95.4645 107.499 95.4696 108.552 95.4594C108.598 92.3328 108.558 89.2164 108.547 86.0947C106.047 84.5263 103.362 83.2133 100.764 81.8135L89.0797 75.4019L48.5233 52.9841ZM110.695 73.8081C110.557 74.4723 110.628 75.2591 110.638 75.9385L110.684 79.3104C110.705 81.9057 110.715 84.5062 110.705 87.1014L110.613 101.421L110.608 105.488C110.613 106.311 110.582 107.189 110.71 108.002C113.333 105.682 116.621 104.415 120.15 104.635C123.883 104.865 127.309 106.469 129.784 109.294C131.282 110.995 132.126 112.83 132.816 114.965H144.015C145.079 114.97 146.147 114.939 147.206 114.975L147.211 102.663L147.216 99.388C147.216 98.4531 147.273 97.4773 147.083 96.5576C146.904 95.6789 146.393 94.841 145.764 94.2075C144.634 93.0784 143.197 92.7565 141.642 92.7616C135.736 92.8076 129.825 92.8127 123.919 92.7718C122.006 92.7718 120.099 92.7565 118.186 92.731C117.204 92.7207 116.197 92.7821 115.215 92.6799C114.842 92.4347 114.551 92.1792 114.443 91.7296C114.234 90.8662 114.387 88.0563 114.387 86.9323L114.382 78.2778C114.377 76.7861 114.407 75.2943 114.366 73.8024C113.144 73.8024 111.917 73.7775 110.695 73.8081ZM118.769 106.806C115.732 107.117 112.776 108.446 110.828 110.852C110.766 110.929 110.705 111.005 110.649 111.082C110.587 111.159 110.531 111.235 110.47 111.317C110.413 111.394 110.357 111.475 110.301 111.552C110.245 111.634 110.194 111.716 110.137 111.797C110.086 111.879 110.03 111.961 109.979 112.043C109.928 112.124 109.877 112.211 109.831 112.293C109.779 112.375 109.733 112.461 109.682 112.548C109.636 112.63 109.59 112.717 109.544 112.804C109.498 112.891 109.457 112.977 109.411 113.064C109.37 113.151 109.324 113.238 109.283 113.33C109.242 113.417 109.202 113.504 109.166 113.596C109.125 113.682 109.089 113.774 109.053 113.866C109.012 113.953 108.982 114.045 108.946 114.137C108.91 114.229 108.874 114.321 108.844 114.413C108.813 114.505 108.782 114.597 108.752 114.689C108.721 114.781 108.69 114.873 108.665 114.965C108.634 115.062 108.608 115.154 108.583 115.246C108.557 115.343 108.532 115.435 108.511 115.532C108.486 115.624 108.465 115.721 108.445 115.818C108.424 115.91 108.404 116.007 108.383 116.104C108.368 116.196 108.348 116.293 108.332 116.39C108.317 116.487 108.302 116.584 108.286 116.681C108.276 116.773 108.261 116.87 108.25 116.967C108.24 117.065 108.23 117.162 108.22 117.259C108.21 117.356 108.204 117.453 108.194 117.55C108.189 117.647 108.184 117.744 108.179 117.841C108.174 117.938 108.169 118.035 108.169 118.137C108.169 118.235 108.163 118.332 108.163 118.429C108.169 118.526 108.169 118.623 108.169 118.72C108.174 118.817 108.179 118.914 108.184 119.011C108.189 119.108 108.194 119.205 108.199 119.302C108.21 119.399 108.215 119.496 108.225 119.594C108.567 122.761 110.137 125.418 112.607 127.39C114.96 129.27 117.711 129.791 120.651 129.74C123.985 129.244 126.649 128.13 128.725 125.351C130.525 122.935 131.4 119.782 130.96 116.799C130.95 116.702 130.935 116.605 130.914 116.508C130.899 116.416 130.883 116.319 130.863 116.222C130.848 116.13 130.827 116.032 130.807 115.941C130.786 115.843 130.761 115.752 130.74 115.654C130.715 115.562 130.694 115.465 130.669 115.373C130.643 115.282 130.612 115.19 130.587 115.092C130.561 115.001 130.531 114.909 130.5 114.817C130.469 114.725 130.438 114.633 130.408 114.541C130.372 114.454 130.341 114.362 130.306 114.27C130.27 114.178 130.234 114.091 130.198 113.999C130.162 113.912 130.121 113.82 130.086 113.734C130.045 113.647 130.004 113.555 129.963 113.468C129.922 113.381 129.881 113.294 129.835 113.207C129.794 113.12 129.748 113.034 129.702 112.947C129.656 112.865 129.61 112.778 129.564 112.696C129.513 112.61 129.467 112.528 129.416 112.446C129.365 112.359 129.313 112.277 129.262 112.196C129.211 112.114 129.16 112.032 129.104 111.95C129.048 111.874 128.996 111.792 128.94 111.715C128.884 111.634 128.828 111.557 128.766 111.48C128.71 111.399 128.654 111.322 128.592 111.245C128.531 111.169 128.47 111.097 128.408 111.021C128.347 110.944 128.286 110.873 128.224 110.801C128.158 110.724 128.091 110.653 128.03 110.581C127.964 110.51 127.897 110.438 127.831 110.372C127.764 110.3 127.692 110.229 127.626 110.162C127.554 110.096 127.488 110.03 127.416 109.958C127.345 109.892 127.273 109.83 127.202 109.764C127.13 109.697 127.058 109.636 126.982 109.575C126.91 109.508 126.833 109.447 126.762 109.386C126.685 109.324 126.608 109.263 126.532 109.207C126.455 109.146 126.378 109.089 126.302 109.033C124.358 107.608 121.311 106.423 118.861 106.785C118.831 106.79 118.8 106.796 118.769 106.806ZM56.1579 106.75C52.875 106.954 49.8835 108.236 47.6949 110.735C47.6336 110.806 47.5722 110.883 47.5109 110.954C47.4495 111.026 47.3881 111.102 47.3319 111.174C47.2705 111.251 47.2143 111.322 47.158 111.399C47.1018 111.475 47.0455 111.552 46.9893 111.629C46.9381 111.705 46.8819 111.787 46.8307 111.864C46.7745 111.94 46.7234 112.022 46.6722 112.099C46.6211 112.18 46.57 112.262 46.5239 112.344C46.4728 112.421 46.4268 112.502 46.3807 112.584C46.3296 112.671 46.2836 112.753 46.2427 112.834C46.1966 112.916 46.1506 113.003 46.1097 113.085C46.0637 113.172 46.0228 113.253 45.9819 113.34C45.941 113.427 45.9001 113.509 45.8643 113.596C45.8234 113.682 45.7876 113.769 45.7466 113.856C45.7109 113.943 45.6751 114.035 45.6393 114.122C45.6086 114.209 45.5728 114.296 45.5421 114.387C45.5063 114.474 45.4756 114.566 45.4449 114.653C45.4143 114.745 45.3836 114.832 45.358 114.924C45.3273 115.016 45.3018 115.108 45.2762 115.195C45.2506 115.287 45.2251 115.379 45.1995 115.471C45.179 115.563 45.1535 115.654 45.133 115.746C45.1126 115.838 45.0921 115.93 45.0716 116.022C45.0512 116.114 45.0359 116.211 45.0205 116.303C45.0001 116.395 44.9847 116.487 44.9694 116.584C44.954 116.676 44.9438 116.768 44.9285 116.865C44.9182 116.957 44.908 117.049 44.8978 117.146C44.8876 117.238 44.8773 117.335 44.8671 117.427C44.862 117.524 44.8518 117.616 44.8466 117.713C44.8415 117.805 44.8364 117.902 44.8364 117.994C44.8313 118.091 44.8313 118.183 44.8262 118.28V118.561C44.8313 118.658 44.8313 118.75 44.8364 118.848C44.8415 118.939 44.8415 119.037 44.8518 119.128C45.0563 122.23 46.4728 125.009 48.8251 127.032C48.9581 127.149 49.0961 127.257 49.2342 127.364C49.3723 127.471 49.5103 127.579 49.6535 127.676C49.7967 127.778 49.945 127.88 50.0933 127.972C50.2365 128.069 50.3899 128.161 50.5382 128.248C50.6916 128.335 50.845 128.422 50.9984 128.503C51.1569 128.58 51.3103 128.662 51.4689 128.733C51.6274 128.81 51.791 128.881 51.9495 128.948C52.1132 129.014 52.2768 129.076 52.4405 129.137C52.6041 129.198 52.7729 129.254 52.9416 129.305C53.1052 129.362 53.274 129.408 53.4427 129.454C53.6115 129.5 53.7853 129.54 53.9541 129.576C54.1279 129.617 54.2967 129.648 54.4706 129.678C54.6444 129.709 54.8183 129.735 54.9921 129.755C55.166 129.781 55.3399 129.796 55.5137 129.811C55.6876 129.827 55.8615 129.837 56.0404 129.842C56.2143 129.852 56.3882 129.852 56.562 129.852C59.9882 129.515 62.9796 128.233 65.2092 125.535C65.2655 125.464 65.3217 125.392 65.378 125.32C65.4394 125.249 65.4905 125.177 65.5467 125.106C65.603 125.029 65.6541 124.958 65.7104 124.881C65.7615 124.804 65.8127 124.733 65.8638 124.656C65.9149 124.58 65.9661 124.503 66.0172 124.426C66.0632 124.345 66.1144 124.268 66.1604 124.191C66.2064 124.11 66.2524 124.033 66.2985 123.951C66.3445 123.875 66.3854 123.793 66.4314 123.711C66.4723 123.635 66.5184 123.553 66.5593 123.471C66.6002 123.389 66.6411 123.302 66.6769 123.221C66.7178 123.139 66.7587 123.057 66.7945 122.97C66.8303 122.889 66.8661 122.802 66.9019 122.72C66.9377 122.633 66.9735 122.551 67.0041 122.465C67.0348 122.378 67.0706 122.291 67.1013 122.209C67.132 122.122 67.1627 122.035 67.1882 121.949C67.2189 121.862 67.2445 121.775 67.2701 121.683C67.3007 121.596 67.3263 121.509 67.3468 121.422C67.3723 121.33 67.3979 121.244 67.4184 121.157C67.4388 121.065 67.4644 120.978 67.4848 120.886C67.5002 120.799 67.5206 120.707 67.5411 120.62C67.5564 120.528 67.5718 120.442 67.5871 120.35C67.6024 120.258 67.6178 120.166 67.6331 120.079C67.6485 119.987 67.6587 119.895 67.6689 119.803C67.6791 119.716 67.6894 119.624 67.6996 119.532C67.7098 119.44 67.7149 119.348 67.7252 119.256C67.7303 119.169 67.7354 119.077 67.7405 118.985C67.7456 118.894 67.7456 118.802 67.7507 118.71V118.434C67.7507 118.342 67.7507 118.25 67.7456 118.158C67.7456 118.066 67.7405 117.979 67.7354 117.887C67.7303 117.795 67.7252 117.703 67.7201 117.611C67.7149 117.519 67.7047 117.427 67.6945 117.335C67.6843 117.238 67.674 117.141 67.6638 117.044C67.6485 116.947 67.6382 116.85 67.6229 116.753C67.6076 116.656 67.5922 116.559 67.5769 116.462C67.5564 116.365 67.5411 116.268 67.5206 116.17C67.5002 116.073 67.4797 115.976 67.4593 115.879C67.4337 115.787 67.4132 115.69 67.3877 115.593C67.3621 115.501 67.3416 115.404 67.311 115.307C67.2854 115.215 67.2598 115.118 67.2291 115.026C67.1985 114.934 67.1729 114.837 67.1371 114.745C67.1064 114.653 67.0757 114.561 67.0399 114.464C67.0093 114.372 66.9735 114.28 66.9377 114.188C66.9019 114.096 66.8661 114.009 66.8252 113.917C66.7894 113.825 66.7485 113.734 66.7076 113.647C66.6666 113.555 66.6257 113.468 66.5848 113.376C66.5439 113.289 66.4979 113.202 66.4519 113.115C66.411 113.023 66.3649 112.937 66.3138 112.855C66.2678 112.768 66.2218 112.681 66.1706 112.594C66.1246 112.507 66.0735 112.426 66.0223 112.339C65.9712 112.257 65.9201 112.175 65.8638 112.088C65.8127 112.007 65.7564 111.925 65.7002 111.843C65.649 111.761 65.5928 111.68 65.5314 111.603C65.4752 111.521 65.4189 111.445 65.3576 111.363C65.3013 111.286 65.2399 111.21 65.1786 111.128C65.1172 111.051 65.0559 110.975 64.9894 110.903C64.928 110.827 64.8615 110.75 64.8002 110.678C64.7337 110.602 64.6672 110.53 64.6007 110.459C64.5343 110.387 64.4678 110.316 64.3962 110.244C64.3297 110.173 64.2581 110.101 64.1917 110.035C64.1201 109.963 64.0485 109.897 63.9769 109.83C63.9053 109.764 63.8337 109.697 63.757 109.631C63.6854 109.565 63.6087 109.503 63.5371 109.437C63.4604 109.376 63.3837 109.309 63.307 109.248C61.2666 107.588 58.7658 106.78 56.1579 106.75ZM116.851 73.8029C116.759 73.8182 116.596 73.8131 116.55 73.8949C116.493 73.9817 116.473 74.0737 116.468 74.1708C116.427 74.6152 116.493 75.1006 116.488 75.5553C116.458 77.0572 116.447 78.5593 116.452 80.0613C116.458 83.5711 116.412 87.081 116.493 90.5857L140.21 90.5908H140.665C140.676 90.4017 140.568 90.2127 140.497 90.0441C139.428 87.6327 138.185 85.2725 137.035 82.9019L134.841 78.4316C134.314 77.3485 133.823 76.2399 133.256 75.1772C133.097 74.8707 132.862 74.4211 132.606 74.1861C132.325 73.9307 131.737 73.8438 131.359 73.808C129.697 73.6497 127.917 73.7978 126.245 73.8029C123.115 73.808 119.981 73.7621 116.851 73.8029Z" fill="black"/>
<path d="M55.7028 111.31C55.7131 111.305 55.7233 111.3 55.7335 111.3C57.3648 111.101 59.1801 111.698 60.479 112.669C61.8699 113.716 62.9488 115.443 63.179 117.175C63.1943 117.293 63.2097 117.41 63.2199 117.528C63.2301 117.645 63.2403 117.768 63.2455 117.885C63.2506 118.003 63.2506 118.12 63.2506 118.243C63.2506 118.36 63.2455 118.478 63.2352 118.595C63.2301 118.713 63.2199 118.83 63.2097 118.953C63.1943 119.071 63.179 119.188 63.1585 119.306C63.1432 119.423 63.1176 119.535 63.0972 119.653C63.0716 119.771 63.046 119.883 63.0153 120C62.9847 120.113 62.9489 120.23 62.9131 120.343C62.8773 120.455 62.8415 120.568 62.8006 120.68C62.7545 120.787 62.7136 120.9 62.6676 121.007C62.6165 121.119 62.5705 121.227 62.5142 121.334C62.4631 121.436 62.4119 121.543 62.3506 121.645C62.2943 121.753 62.233 121.855 62.1716 121.952C62.1102 122.054 62.0437 122.156 61.9773 122.253C61.9108 122.35 61.8392 122.448 61.7676 122.54C60.5506 124.113 59.0113 124.905 57.0579 125.16C55.3754 125.349 53.5142 124.864 52.1743 123.832C52.0823 123.761 51.9902 123.689 51.8982 123.612C51.8061 123.536 51.7192 123.459 51.6323 123.383C51.5453 123.301 51.4635 123.219 51.3817 123.132C51.2999 123.05 51.2181 122.964 51.1414 122.877C51.0647 122.785 50.988 122.698 50.9164 122.606C50.8448 122.514 50.7732 122.417 50.7016 122.325C50.6351 122.228 50.5686 122.131 50.5073 122.034C50.4408 121.932 50.3845 121.835 50.3232 121.732C50.2669 121.63 50.2107 121.523 50.1544 121.421C50.1033 121.313 50.0522 121.211 50.0061 121.104C49.9601 120.992 49.9141 120.884 49.8681 120.777C49.8272 120.665 49.7863 120.557 49.7505 120.445C49.7147 120.333 49.684 120.22 49.6533 120.108C49.6175 119.995 49.5919 119.878 49.5664 119.765C49.5408 119.648 49.5203 119.536 49.4999 119.418C49.4794 119.301 49.4641 119.188 49.4488 119.071C49.2237 117.226 49.6993 115.239 50.8703 113.778C52.072 112.281 53.821 111.504 55.7028 111.31ZM55.9432 113.476C54.8028 113.522 53.5807 114.125 52.8086 114.953C52.7523 115.009 52.7012 115.07 52.65 115.132C52.5989 115.193 52.5478 115.254 52.5017 115.315C52.4557 115.377 52.4097 115.443 52.3637 115.51C52.3177 115.571 52.2767 115.637 52.2358 115.709C52.1949 115.775 52.154 115.842 52.1131 115.913C52.0773 115.98 52.0415 116.051 52.0057 116.123C51.9699 116.194 51.9392 116.266 51.9086 116.337C51.8779 116.409 51.8472 116.485 51.8165 116.557C51.7909 116.634 51.7654 116.705 51.7398 116.782C51.7194 116.858 51.6938 116.935 51.6733 117.012C51.6529 117.088 51.6375 117.165 51.6222 117.242C51.6017 117.318 51.5915 117.395 51.5762 117.471C51.5659 117.553 51.5557 117.63 51.5455 117.706C51.5353 117.788 51.5302 117.865 51.525 117.941C51.5199 118.023 51.5148 118.1 51.5148 118.182C51.5148 118.258 51.5148 118.34 51.5199 118.417C51.5199 118.498 51.5302 118.58 51.5353 118.657C51.5455 118.738 51.5557 118.82 51.5659 118.897C51.5813 118.979 51.5915 119.055 51.612 119.137C51.6273 119.214 51.6427 119.295 51.6631 119.372C51.6836 119.449 51.704 119.53 51.7296 119.607C51.7552 119.684 51.7807 119.76 51.8063 119.832C51.837 119.908 51.8625 119.985 51.8932 120.062C51.929 120.133 51.9597 120.205 51.9955 120.281C52.0313 120.353 52.0671 120.424 52.1029 120.496C52.1438 120.567 52.1847 120.634 52.2256 120.705C52.2665 120.772 52.3125 120.843 52.3586 120.91C52.3995 120.976 52.4506 121.043 52.4966 121.104C52.5478 121.17 52.5938 121.232 52.6449 121.293C52.7012 121.354 52.7523 121.415 52.8086 121.477C52.8597 121.533 52.9159 121.594 52.9722 121.65C53.0336 121.707 53.0898 121.763 53.1512 121.814C54.133 122.693 55.3858 123.117 56.6949 123.061C57.9579 122.943 59.1647 122.366 59.988 121.39C60.8062 120.409 61.1846 119.081 61.067 117.819C61.0619 117.742 61.0517 117.666 61.0414 117.589C61.0312 117.512 61.0159 117.436 61.0056 117.359C60.9903 117.282 60.975 117.211 60.9545 117.134C60.9392 117.058 60.9187 116.981 60.8983 116.909C60.8727 116.833 60.8522 116.761 60.8267 116.69C60.8011 116.613 60.7755 116.542 60.7448 116.47C60.7142 116.399 60.6835 116.327 60.6528 116.261C60.6221 116.189 60.5863 116.118 60.5505 116.051C60.5147 115.98 60.4789 115.913 60.438 115.847C60.4022 115.78 60.3613 115.714 60.3153 115.653C60.2744 115.586 60.2335 115.52 60.1875 115.459C60.1414 115.397 60.0954 115.336 60.0443 115.275C59.9983 115.213 59.9471 115.157 59.896 115.096C59.8448 115.04 59.7937 114.983 59.7375 114.927C59.6812 114.871 59.6301 114.82 59.5738 114.769C59.5125 114.713 59.4562 114.662 59.4 114.616C59.3386 114.564 59.2772 114.513 59.2159 114.467C59.1545 114.421 59.088 114.375 59.0267 114.335C58.9602 114.289 58.8937 114.248 58.8324 114.207C58.7659 114.166 58.6943 114.13 58.6278 114.089C58.5613 114.054 58.4897 114.018 58.4233 113.982C58.3517 113.946 58.2801 113.916 58.2136 113.885C58.142 113.854 58.0704 113.824 57.9937 113.798C57.9221 113.767 57.8505 113.742 57.7789 113.716C57.7022 113.696 57.6307 113.67 57.5539 113.65C57.4772 113.63 57.4056 113.609 57.3289 113.594C57.2522 113.578 57.1755 113.563 57.0988 113.548C57.0221 113.532 56.9454 113.522 56.8687 113.512C56.792 113.502 56.7153 113.492 56.6386 113.486C56.5619 113.481 56.4852 113.476 56.4085 113.471C56.3267 113.471 56.25 113.466 56.1733 113.466C56.0965 113.471 56.0199 113.471 55.9432 113.476Z" fill="black"/>
<path d="M118.793 111.367C118.813 111.362 118.834 111.357 118.854 111.357C120.629 111.163 122.373 111.557 123.815 112.629C125.323 113.758 126.32 115.363 126.571 117.238C126.827 119.164 126.377 121.085 125.185 122.633C124.019 124.14 122.368 125.039 120.496 125.289C120.45 125.299 120.399 125.304 120.353 125.315C118.691 125.565 116.712 124.886 115.392 123.9C115.3 123.833 115.214 123.762 115.127 123.69C115.04 123.619 114.958 123.542 114.871 123.465C114.789 123.389 114.707 123.307 114.631 123.23C114.549 123.149 114.472 123.067 114.395 122.98C114.319 122.893 114.247 122.806 114.175 122.719C114.104 122.633 114.037 122.541 113.971 122.449C113.904 122.357 113.838 122.265 113.777 122.173C113.715 122.076 113.654 121.979 113.598 121.881C113.541 121.784 113.485 121.687 113.434 121.585C113.378 121.483 113.332 121.386 113.281 121.279C113.235 121.176 113.189 121.074 113.148 120.967C113.102 120.865 113.066 120.758 113.025 120.65C112.989 120.543 112.953 120.436 112.923 120.328C112.892 120.221 112.861 120.109 112.836 120.001C112.805 119.889 112.785 119.782 112.764 119.669C112.739 119.557 112.723 119.445 112.708 119.332C112.447 117.524 112.907 115.49 114.027 114.029C115.193 112.502 116.911 111.628 118.793 111.367ZM119.049 113.467C117.581 113.784 116.328 114.428 115.5 115.725C115.459 115.792 115.418 115.858 115.377 115.925C115.341 115.991 115.3 116.058 115.265 116.129C115.229 116.195 115.198 116.267 115.162 116.339C115.132 116.41 115.101 116.482 115.07 116.553C115.045 116.625 115.019 116.696 114.994 116.773C114.968 116.844 114.942 116.921 114.922 116.992C114.902 117.069 114.881 117.146 114.861 117.222C114.845 117.294 114.83 117.371 114.815 117.447C114.799 117.524 114.789 117.6 114.779 117.677C114.769 117.759 114.758 117.835 114.753 117.912C114.748 117.989 114.743 118.065 114.738 118.142C114.738 118.224 114.733 118.3 114.738 118.377C114.738 118.454 114.738 118.53 114.743 118.612C114.748 118.689 114.758 118.765 114.763 118.842C114.774 118.919 114.784 118.995 114.799 119.072C114.81 119.148 114.825 119.225 114.84 119.302C115.121 120.574 115.955 121.779 117.065 122.469C118.087 123.108 119.228 123.276 120.414 123.118C121.744 122.842 122.935 122.204 123.697 121.049C124.413 119.971 124.72 118.607 124.449 117.335C124.167 116.032 123.431 114.903 122.301 114.188C121.309 113.554 120.209 113.375 119.049 113.467Z" fill="black"/>
</svg>
