<svg width="180" height="180" viewBox="0 0 180 180" fill="none" xmlns="http://www.w3.org/2000/svg">
<path d="M179.308 89.9999C179.308 139.323 139.323 179.308 90 179.308C40.6767 179.308 0.692308 139.323 0.692308 89.9999C0.692308 40.6767 40.6767 0.692308 90 0.692308C139.323 0.692308 179.308 40.6767 179.308 89.9999Z" fill="white" stroke="black" stroke-width="1.38462"/>
<path d="M132.61 49.3369H86.1108C84.2215 49.3369 82.6753 50.8861 82.6753 52.7791V56.0213H71.4218C69.0331 56.0213 66.8396 57.2354 65.5714 59.2634L56.1551 74.3689C56.1333 74.4037 56.1203 74.4342 56.1116 74.469C56.0899 74.5038 56.0769 74.5343 56.0682 74.5691C56.0248 74.704 55.99 74.8258 55.99 74.9607V88.7427C55.3993 89.2214 54.8781 89.7915 54.4568 90.4574L45.0361 105.563C45.0144 105.598 45.0014 105.628 44.9927 105.663C44.9797 105.698 44.958 105.728 44.9493 105.763C44.9058 105.898 44.8711 106.02 44.8711 106.155V123.98C44.8711 124.593 45.3706 125.094 45.983 125.094H51.6293C52.1722 128.871 55.4079 131.778 59.3256 131.778C63.2389 131.778 66.4747 128.871 67.022 125.094H96.1046C96.6475 128.871 99.8832 131.778 103.801 131.778C107.714 131.778 110.95 128.871 111.497 125.094H123.815C124.427 125.094 124.927 124.593 124.927 123.98V93.9001H134.934C135.546 93.9001 136.046 93.3997 136.046 92.7861V52.7802C136.046 50.8872 134.499 49.338 132.61 49.338L132.61 49.3369ZM67.4644 60.4427C68.32 59.0632 69.8012 58.2494 71.4212 58.2494H82.6746V73.8462H59.1037L67.4644 60.4427ZM58.2132 76.0741H82.6747V80.5303H74.9913C73.102 80.5303 71.5558 82.0795 71.5558 83.9725V87.2147H60.3024C59.5814 87.2147 58.8779 87.3365 58.2133 87.5497L58.2132 76.0741ZM56.3455 91.6363C57.2012 90.2655 58.6823 89.443 60.3023 89.443H71.5557V105.04H47.9848L56.3455 91.6363ZM47.0943 107.268H71.5558V122.865H67.0301C67.0084 122.721 66.9867 122.564 66.9519 122.421C66.2309 118.809 63.0168 116.18 59.325 116.18C59.0688 116.18 58.7908 116.193 58.5346 116.224C57.3228 116.337 56.1544 116.746 55.1989 117.381C53.4094 118.474 52.1412 120.31 51.6982 122.408C51.6635 122.551 51.6418 122.708 51.62 122.864H47.0943L47.0943 107.268ZM59.3251 129.549C56.2544 129.549 53.7656 127.055 53.7656 123.979C53.7656 123.6 53.8004 123.208 53.8785 122.865C54.1913 121.372 55.0903 120.066 56.402 119.266C57.0795 118.809 57.8917 118.53 58.6474 118.452C58.7039 118.452 58.7604 118.452 58.8125 118.439C58.9819 118.421 59.1599 118.408 59.325 118.408C61.9614 118.408 64.2503 120.28 64.7715 122.877C64.8496 123.208 64.8844 123.6 64.8844 123.979C64.8844 127.055 62.3958 129.549 59.3251 129.549ZM103.801 129.549C100.73 129.549 98.2411 127.055 98.2411 123.979C98.2411 123.6 98.2759 123.208 98.3541 122.865C98.8666 120.28 101.168 118.408 103.801 118.408C103.966 118.408 104.144 118.421 104.391 118.452C105.225 118.53 106.024 118.809 106.75 119.266C108.027 120.066 108.952 121.38 109.251 122.873C109.325 123.208 109.36 123.6 109.36 123.979C109.36 127.055 106.871 129.549 103.801 129.549ZM122.703 122.865H111.506C111.484 122.708 111.463 122.564 111.428 122.421C110.993 120.349 109.716 118.508 107.936 117.386C106.911 116.742 105.79 116.35 104.6 116.237C104.335 116.193 104.057 116.18 103.801 116.18C100.109 116.18 96.8951 118.809 96.1741 122.408C96.1393 122.551 96.1176 122.708 96.0959 122.865H73.7803V83.9728C73.7803 83.3026 74.3232 82.7587 74.992 82.7587H121.491C122.16 82.7587 122.703 83.3027 122.703 83.9728L122.703 122.865ZM133.822 91.6709H124.926V83.9725C124.926 82.0795 123.38 80.5303 121.491 80.5303H84.8987V52.7791C84.8987 52.109 85.4416 51.565 86.1104 51.565H132.61C133.278 51.565 133.821 52.109 133.821 52.7791L133.822 91.6709Z" fill="black"/>
</svg>
