<svg width="180" height="180" viewBox="0 0 180 180" fill="none" xmlns="http://www.w3.org/2000/svg">
<path d="M179.538 89.9999C179.538 139.451 139.451 179.538 90 179.538C40.5493 179.538 0.461538 139.451 0.461538 89.9999C0.461538 40.5493 40.5493 0.461538 90 0.461538C139.451 0.461538 179.538 40.5493 179.538 89.9999Z" fill="white" stroke="black" stroke-width="0.923077"/>
<path d="M88.4603 116.344C97.892 116.344 107.325 116.347 116.757 116.342C120.087 116.34 121.344 115.084 121.364 111.771C121.374 109.916 121.344 108.059 121.377 106.204C121.405 104.581 121.187 103.024 120.457 101.552C120.032 100.694 119.899 99.7755 120.925 99.2888C121.975 98.7888 122.625 99.5922 122.992 100.386C123.75 102.031 124.212 103.774 124.2 105.615C124.189 107.677 124.184 109.739 124.195 111.801C124.207 113.826 123.775 115.694 122.33 117.207C121.867 117.692 121.724 118.259 121.727 118.9C121.734 120.137 121.762 121.375 121.71 122.61C121.572 126.014 119.054 128.68 115.837 128.875C112.384 129.084 109.724 126.904 109.182 123.367C109.05 122.507 109.004 121.62 109.034 120.75C109.079 119.469 108.469 118.965 107.259 119.012C106.95 119.024 106.64 119.007 106.33 119.007C94.1153 119.007 81.8987 119.007 69.6837 119.007C67.4537 119.007 67.352 119.07 67.3953 121.387C67.4337 123.455 67.1987 125.389 65.6553 126.962C63.7487 128.909 61.492 129.339 58.9853 128.497C56.4037 127.632 55.147 125.679 54.8604 123.05C54.782 122.337 54.8037 121.607 54.8353 120.887C54.9103 119.169 54.917 117.535 53.4453 116.219C52.772 115.616 52.482 114.592 52.457 113.666C52.3637 110.271 52.0804 106.859 52.6054 103.486C53.1837 99.7705 55.242 97.0338 58.6137 95.3788C59.6687 94.8622 60.2853 94.1472 60.7403 93.0955C62.297 89.5038 63.897 85.9288 65.547 82.3789C67.4103 78.3705 71.2853 76.2855 75.6453 76.8389C76.502 76.9472 77.1837 77.2772 77.1787 78.2372C77.1737 79.1939 76.4903 79.5422 75.6353 79.6322C75.5837 79.6372 75.532 79.6455 75.4803 79.6389C70.7453 79.0822 68.4237 81.7389 66.9803 85.8105C66.192 88.0355 65.0537 90.1372 64.0687 92.2938C63.2887 94.0038 63.3437 94.1088 65.1687 94.1105C71.3537 94.1138 77.5387 94.1105 83.7237 94.1105C84.1353 94.1105 84.5487 94.1038 84.9603 94.1138C85.9887 94.1405 87.0853 94.2405 87.0387 95.5905C86.997 96.8322 85.917 96.9255 84.967 96.9288C79.3487 96.9472 73.7303 96.9405 68.112 96.9422C66.6687 96.9422 65.2253 96.9272 63.782 96.9488C58.7154 97.0238 55.2404 100.491 55.1987 105.517C55.1804 107.734 55.1754 109.951 55.1987 112.166C55.2287 115.016 56.512 116.319 59.3853 116.327C66.962 116.352 74.5387 116.337 82.1153 116.337C84.2287 116.337 86.342 116.337 88.4553 116.337L88.4603 116.344ZM115.44 119.005C111.625 119.005 111.28 119.402 111.907 123.064C112.22 124.897 113.722 126.185 115.557 126.197C117.114 126.207 118.549 124.822 118.832 123.037C119.419 119.335 119.142 119.007 115.44 119.007V119.005ZM61.307 119.005C58.6859 119.005 57.5009 120.291 57.752 122.862C57.937 124.75 59.3737 126.152 61.152 126.177C62.792 126.199 64.377 124.799 64.6703 123.067C65.287 119.434 64.9337 119.007 61.307 119.007V119.005Z" fill="black"/>
<path d="M84.49 73.2053C84.5467 61.5303 93.9117 52.2603 105.613 52.297C117.178 52.332 126.682 61.8653 126.658 73.4086C126.635 84.8536 116.973 94.467 105.488 94.472C93.87 94.477 84.4333 84.9186 84.4883 73.2053H84.49ZM105.333 91.6386C115.482 91.712 123.758 83.6186 123.83 73.552C123.903 63.392 115.657 54.9786 105.605 54.9586C95.4983 54.9386 87.1783 63.2353 87.15 73.362C87.1233 83.3153 95.3317 91.567 105.333 91.6403V91.6386Z" fill="black"/>
<path d="M67.3897 106.67C67.358 108.125 66.2463 109.23 64.8363 109.21C63.3447 109.188 62.228 108.012 62.2747 106.513C62.3163 105.158 63.573 103.973 64.913 104.025C66.288 104.078 67.4197 105.288 67.3897 106.672V106.67Z" fill="black"/>
<path d="M111.67 109.215C110.293 109.189 109.05 107.964 109.087 106.665C109.127 105.24 110.388 103.997 111.772 104.022C113.09 104.045 114.298 105.33 114.255 106.665C114.212 108.044 112.998 109.24 111.67 109.215Z" fill="black"/>
<path d="M99.1452 73.4219C99.1452 70.4885 99.1102 67.5535 99.1569 64.6202C99.1902 62.5569 99.6019 62.2019 101.62 62.1802C102.855 62.1669 104.09 62.1452 105.325 62.1369C108.82 62.1135 111.577 64.6402 111.82 68.0835C112.05 71.3369 109.372 74.3569 105.957 74.6902C105.702 74.7152 105.444 74.7135 105.185 74.7152C101.634 74.7569 101.985 74.2685 101.965 77.9402C101.957 79.3819 101.97 80.8219 101.96 82.2635C101.954 83.2585 101.992 84.4369 100.644 84.4702C99.1969 84.5069 99.1719 83.2485 99.1586 82.2235C99.1186 79.2902 99.1452 76.3552 99.1452 73.4219ZM104.459 64.8402C102.797 64.8324 101.966 65.6835 101.964 67.3935C101.964 67.7035 101.964 68.0119 101.964 68.3219C101.964 72.1385 102.189 72.3385 105.965 71.8452C106.067 71.8319 106.17 71.8219 106.272 71.8002C107.869 71.4602 108.972 70.1169 108.992 68.4935C109.022 66.1369 107.432 64.8552 104.46 64.8402H104.459Z" fill="black"/>
</svg>
