<svg width="187" height="93" viewBox="0 0 187 93" fill="none" xmlns="http://www.w3.org/2000/svg">
<path d="M65.82 60.7259H69.0711V60.0086H65.82V58.1446H69.2133V57.4277H64.8962V63.7242H69.2953V63.0073H65.82V60.7259ZM75.8714 57.4277H74.8789L73.1734 59.7684L71.4766 57.4277H70.4841L72.6104 60.3631L70.1732 63.7242H71.17L73.1047 61.0463L75.0253 63.7242H76.0174L73.6764 60.4515L75.8714 57.4277ZM79.3145 57.4277H77.229V63.7242H78.1528V61.1939H79.3141C80.0793 61.1939 80.6576 61.0353 81.0494 60.7173C81.4412 60.3993 81.6371 59.9301 81.6371 59.3086C81.6371 58.693 81.4412 58.2254 81.0494 57.9062C80.658 57.5875 80.0797 57.4277 79.3145 57.4277ZM80.3113 60.1861C80.0766 60.391 79.7444 60.4939 79.3145 60.4939H78.1532V58.1281H79.3145C79.7444 58.1281 80.0766 58.2309 80.3113 58.4359C80.5461 58.6408 80.6635 58.9321 80.6635 59.309C80.6635 59.6883 80.5461 59.9808 80.3113 60.1861ZM83.8004 60.7259H87.0519V60.0086H83.8004V58.1446H87.1936V57.4277H82.877V63.7242H87.2761V63.0073H83.8004V60.7259ZM92.6104 61.1688C92.4227 60.9662 92.2299 60.8339 92.0317 60.7722C92.4129 60.6709 92.703 60.4896 92.9029 60.2281C93.1023 59.9666 93.2024 59.6376 93.2024 59.2411C93.2024 58.6337 93.0104 58.1799 92.6261 57.8788C92.2421 57.5776 91.6595 57.4277 90.8794 57.4277H88.7939V63.7242H89.7177V61.0632H90.7239C91.0898 61.0632 91.3784 61.1323 91.5904 61.2697C91.8024 61.4075 92.0211 61.687 92.2464 62.1091L93.12 63.7242H94.1121L93.1746 62.0034C92.9857 61.6493 92.7977 61.371 92.6104 61.1688ZM90.8794 60.3631H89.7181V58.1281H90.8794C91.3242 58.1281 91.6607 58.2215 91.8876 58.4088C92.1145 58.5957 92.2284 58.8732 92.2284 59.2415C92.2284 59.6097 92.1145 59.8885 91.8876 60.0789C91.6607 60.2681 91.3242 60.3631 90.8794 60.3631ZM95.3013 57.4277H96.2251V63.7242H95.3013V57.4277ZM98.987 60.7259H102.239V60.0086H98.987V58.1446H102.38V57.4277H98.0632V63.7242H102.463V63.0073H98.987V60.7259ZM108.252 62.6952L105.225 57.4277H103.981V63.7242H104.877V58.4567L107.904 63.7242H109.148V57.4277H108.252V62.6952ZM113.927 57.3138C112.893 57.3138 112.079 57.6055 111.485 58.1889C110.89 58.7719 110.593 59.5701 110.593 60.5822C110.593 61.5916 110.89 62.3882 111.485 62.9716C112.079 63.5546 112.893 63.8467 113.927 63.8467C114.329 63.8467 114.711 63.7961 115.072 63.6948C115.434 63.593 115.78 63.4397 116.099 63.2394V62.3493C115.805 62.6059 115.468 62.8086 115.104 62.948C114.745 63.0815 114.365 63.1487 113.982 63.1463C113.201 63.1463 112.604 62.9261 112.189 62.486C111.774 62.0462 111.567 61.4114 111.567 60.5818C111.567 59.7495 111.774 59.1135 112.189 58.6734C112.604 58.2337 113.201 58.0134 113.982 58.0134C114.378 58.0134 114.752 58.0794 115.104 58.2117C115.468 58.3512 115.805 58.5539 116.099 58.8104V57.9121C115.783 57.7132 115.44 57.5618 115.081 57.463C114.705 57.3616 114.316 57.3114 113.927 57.3138ZM118.449 60.7259H121.701V60.0086H118.449V58.1446H121.843V57.4277H117.526V63.7242H121.925V63.0073H118.449V60.7259ZM128.181 57.4277L125.574 63.7242H126.548L127.17 62.1091H130.247L130.869 63.7242H131.829L129.227 57.4277H128.181ZM127.449 61.4004L128.702 58.267L129.959 61.4004H127.449ZM135.945 61.7125L134.203 57.4277H132.827V63.7242H133.723V58.1952L135.483 62.5138H136.412L138.172 58.1952V63.7242H139.073V57.4277H137.696L135.945 61.7125ZM142.668 57.4277L140.061 63.7242H141.034L141.656 62.1091H144.734L145.356 63.7242H146.316L143.714 57.4277H142.668ZM141.936 61.4004L143.189 58.267L144.446 61.4004H141.936ZM152.284 58.0774V57.4277H146.921V58.1446H151.131L146.815 63.0749V63.7242H152.389V63.0073H147.967L152.284 58.0774ZM153.729 57.4277H154.653V63.7242H153.729V57.4277ZM160.762 62.6952L157.735 57.4277H156.491V63.7242H157.387V58.4567L160.415 63.7242H161.659V57.4277H160.762V62.6952ZM166.643 61.135H168.152V62.8263C167.935 62.9405 167.703 63.0221 167.462 63.0686C167.206 63.1208 166.915 63.1467 166.588 63.1467C165.753 63.1467 165.125 62.9316 164.706 62.5013C164.287 62.071 164.077 61.4314 164.077 60.5822C164.077 59.7303 164.287 59.0892 164.706 58.6593C165.126 58.2294 165.753 58.0138 166.588 58.0138C167.012 58.0138 167.416 58.0813 167.8 58.2164C168.184 58.3515 168.547 58.5521 168.888 58.8194V57.9125C168.55 57.7158 168.18 57.5666 167.779 57.4654C167.379 57.3641 166.955 57.3134 166.511 57.3134C165.443 57.3134 164.609 57.6008 164.007 58.1756C163.404 58.7507 163.103 59.5528 163.103 60.5818C163.103 61.6081 163.404 62.4086 164.007 62.9834C164.609 63.5585 165.443 63.8459 166.511 63.8459C166.998 63.8459 167.457 63.7863 167.887 63.6665C168.305 63.5524 168.703 63.3739 169.067 63.1373V60.4338H166.643V61.135ZM169.269 45.2837C169.269 43.1632 167.385 41.424 165.084 41.424H153.156C153.313 39.9726 154.567 38.7571 155.836 38.7571H167.908L167.87 36.2326H155.065C151.01 36.2326 147.767 39.5941 147.675 43.5048C147.663 43.7792 147.845 43.9492 148.147 43.9492L162.677 43.8951C163.422 43.9999 163.998 44.588 163.998 45.2825C163.998 46.0658 163.292 46.6943 162.428 46.6943H146.446V36.2432H141.737V46.7206H133.078C130.738 46.7206 130.254 45.2947 130.254 43.9865V36.1785H122.446C121.674 36.7018 120.928 37.2777 120.131 37.761L115.501 40.6121L109.484 36.2177H91.2771C88.8838 36.2177 87.0394 36.8459 85.6798 37.9177C83.2339 39.854 82.449 41.8936 82.4754 42.8099H85.6664C84.2668 43.8566 83.3249 45.1106 82.8283 46.5636H72.3643C70.481 46.5636 69.2643 45.2303 69.2643 43.9347V36.1258H64.6343V44.2351C64.6343 47.1517 67.4077 49.1653 71.8539 49.1653H106.958C107.691 48.6691 108.384 48.1462 109.143 47.688L113.904 44.7973L119.946 49.1143H126.826L117.735 42.2732L122.406 39.2266C123.4 38.5722 124.447 38.0233 125.466 37.4222V44.3018C125.466 47.2055 126.212 49.2195 132.058 49.2195L165.084 49.1418C167.634 49.1795 169.269 47.4147 169.269 45.2837ZM106.03 46.5365H88.8964C88.9486 45.2032 90.3741 43.8562 91.6689 43.8562H102.446V41.1747H88.7652C88.6086 40.3899 90.0734 38.8466 91.1978 38.8466H103.505V37.4069L111.471 43.1236L106.03 46.5365ZM50.3534 30.2808L49.58 31.3891C55.0277 33.974 57.2793 37.3563 57.2793 42.0891C57.3139 43.3588 56.979 44.7325 56.1474 46.0022H40.1489C39.191 46.0022 39.052 44.9174 39.3986 44.3053C40.7701 41.8642 42.3009 39.5161 43.9811 37.2762C45.597 35.1173 47.1894 33.0973 48.8635 30.9851C49.3134 30.3966 49.0135 29.8309 48.1132 29.6463C46.2433 29.2533 44.2928 28.9766 41.9266 28.9766C28.8023 28.9766 24 36.5137 24 42.1009C24 48.1615 28.8369 55.191 41.9612 55.191C49.2443 55.191 54.0121 52.8472 56.7709 49.8347H53.9885C51.5756 52.0624 47.4313 53.6445 41.9612 53.6445C30.845 53.6445 26.7478 47.399 26.7478 42.02C26.8279 37.2181 31.2258 30.5921 42.2387 30.373C42.6541 30.3613 42.9776 30.7425 42.6883 31.1001C40.8069 33.4204 35.4404 40.9117 34.8288 41.8818C33.6513 43.7404 33.5473 44.6406 33.5124 45.2409C33.4782 45.8302 33.4782 46.8918 34.4362 47.7575C36.0407 49.1889 38.2911 48.9577 40.2883 48.9577H56.7375C57.4411 48.9577 57.6492 48.75 58.03 48.2423C59.346 46.2338 59.9349 44.0517 59.9349 42.1009C59.9341 37.9224 57.222 32.6588 50.3534 30.2808Z" fill="white"/>
</svg>
