<svg width="32" height="32" viewBox="0 0 32 32" fill="none" xmlns="http://www.w3.org/2000/svg">
<path d="M26.7076 25.2928C26.8005 25.3857 26.8742 25.496 26.9245 25.6174C26.9747 25.7388 27.0006 25.8689 27.0006 26.0003C27.0006 26.1317 26.9747 26.2618 26.9245 26.3832C26.8742 26.5046 26.8005 26.6149 26.7076 26.7078C26.6147 26.8007 26.5044 26.8744 26.383 26.9247C26.2616 26.975 26.1315 27.0009 26.0001 27.0009C25.8687 27.0009 25.7386 26.975 25.6172 26.9247C25.4958 26.8744 25.3855 26.8007 25.2926 26.7078L16.0001 17.414L6.70757 26.7078C6.51993 26.8954 6.26543 27.0009 6.00007 27.0009C5.7347 27.0009 5.48021 26.8954 5.29257 26.7078C5.10493 26.5202 4.99951 26.2657 4.99951 26.0003C4.99951 25.7349 5.10493 25.4804 5.29257 25.2928L15.2926 15.2928C15.3854 15.1998 15.4957 15.1261 15.6171 15.0757C15.7385 15.0254 15.8687 14.9995 16.0001 14.9995C16.1315 14.9995 16.2616 15.0254 16.383 15.0757C16.5044 15.1261 16.6147 15.1998 16.7076 15.2928L26.7076 25.2928ZM6.70757 16.7078L16.0001 7.41405L25.2926 16.7078C25.3855 16.8007 25.4958 16.8744 25.6172 16.9247C25.7386 16.975 25.8687 17.0009 26.0001 17.0009C26.1315 17.0009 26.2616 16.975 26.383 16.9247C26.5044 16.8744 26.6147 16.8007 26.7076 16.7078C26.8005 16.6149 26.8742 16.5046 26.9245 16.3832C26.9747 16.2618 27.0006 16.1317 27.0006 16.0003C27.0006 15.8689 26.9747 15.7388 26.9245 15.6174C26.8742 15.496 26.8005 15.3857 26.7076 15.2928L16.7076 5.2928C16.6147 5.19982 16.5044 5.12606 16.383 5.07574C16.2616 5.02541 16.1315 4.99951 16.0001 4.99951C15.8687 4.99951 15.7385 5.02541 15.6171 5.07574C15.4957 5.12606 15.3854 5.19982 15.2926 5.2928L5.29257 15.2928C5.10493 15.4804 4.99951 15.7349 4.99951 16.0003C4.99951 16.2657 5.10493 16.5202 5.29257 16.7078C5.48021 16.8954 5.7347 17.0009 6.00007 17.0009C6.26543 17.0009 6.51993 16.8954 6.70757 16.7078Z" fill="#343330"/>
</svg>
